<?xml version="1.0" encoding="UTF-8"?>
<svg version="1.1" xmlns="http://www.w3.org/2000/svg" width="512" height="512">
<path d="M0 0 C1.01790619 0.00215515 2.03581238 0.0043103 3.08456421 0.00653076 C17.69363523 0.05620146 32.02575853 0.30709809 46.375 3.3125 C47.34985352 3.51117676 48.32470703 3.70985352 49.32910156 3.91455078 C97.7109774 14.03517194 141.69928269 35.9516877 177.375 70.3125 C178.3640332 71.26068604 178.3640332 71.26068604 179.37304688 72.22802734 C188.86130305 81.37247479 197.6012044 90.66984009 205.375 101.3125 C206.23306152 102.46355017 207.09113451 103.61459177 207.94921875 104.765625 C213.98736829 112.95680614 219.34595521 121.47054105 224.375 130.3125 C224.73948242 130.94430176 225.10396484 131.57610352 225.47949219 132.22705078 C247.08534998 169.97532572 256.85198095 212.74189997 256.6875 255.9375 C256.68534485 256.95540619 256.6831897 257.97331238 256.68096924 259.02206421 C256.63129854 273.63113523 256.38040191 287.96325853 253.375 302.3125 C253.07698486 303.77478027 253.07698486 303.77478027 252.77294922 305.26660156 C242.65232806 353.6484774 220.7358123 397.63678269 186.375 433.3125 C185.74287598 433.97185547 185.11075195 434.63121094 184.45947266 435.31054688 C175.31502521 444.79880305 166.01765991 453.5387044 155.375 461.3125 C154.22394983 462.17056152 153.07290823 463.02863451 151.921875 463.88671875 C143.73224019 469.92427396 135.22961724 475.30707302 126.375 480.3125 C125.66778809 480.7146875 124.96057617 481.116875 124.23193359 481.53125 C101.09654164 494.5566741 75.92537591 503.30551461 49.9375 508.625 C49.21860596 508.77235596 48.49971191 508.91971191 47.7590332 509.0715332 C33.08339502 511.86090125 18.55831162 512.66142619 3.64770508 512.62817383 C0.70811513 512.6250221 -2.2304558 512.64854926 -5.16992188 512.67382812 C-18.54306192 512.71848737 -31.43916711 511.51301542 -44.625 509.3125 C-46.33055054 509.03031616 -46.33055054 509.03031616 -48.07055664 508.74243164 C-91.33802759 500.97044532 -132.38793216 480.98345309 -165.625 452.3125 C-166.37007813 451.67828125 -167.11515625 451.0440625 -167.8828125 450.390625 C-181.38779833 438.57948485 -194.05918743 425.82889772 -204.625 411.3125 C-205.48149066 410.16255169 -206.33826433 409.01281411 -207.1953125 407.86328125 C-213.23534209 399.67315742 -218.61867614 391.16870382 -223.625 382.3125 C-224.0271875 381.60528809 -224.429375 380.89807617 -224.84375 380.16943359 C-237.8691741 357.03404164 -246.61801461 331.86287591 -251.9375 305.875 C-252.08485596 305.15610596 -252.23221191 304.43721191 -252.3840332 303.6965332 C-255.35789088 288.05024391 -255.99800362 272.57681954 -255.9375 256.6875 C-255.93534485 255.66959381 -255.9331897 254.65168762 -255.93096924 253.60293579 C-255.88129854 238.99386477 -255.63040191 224.66174147 -252.625 210.3125 C-252.42632324 209.33764648 -252.22764648 208.36279297 -252.02294922 207.35839844 C-241.90232806 158.9765226 -219.9858123 114.98821731 -185.625 79.3125 C-184.99287598 78.65314453 -184.36075195 77.99378906 -183.70947266 77.31445312 C-174.56502521 67.82619695 -165.26765991 59.0862956 -154.625 51.3125 C-153.47394983 50.45443848 -152.32290823 49.59636549 -151.171875 48.73828125 C-142.98224019 42.70072604 -134.47961724 37.31792698 -125.625 32.3125 C-124.91778809 31.9103125 -124.21057617 31.508125 -123.48193359 31.09375 C-100.34654164 18.0683259 -75.17537591 9.31948539 -49.1875 4 C-48.46860596 3.85264404 -47.74971191 3.70528809 -47.0090332 3.5534668 C-31.36274391 0.57960912 -15.88931954 -0.06050362 0 0 Z M-79.625 111.3125 C-80.69234375 111.88871094 -81.7596875 112.46492188 -82.859375 113.05859375 C-94.47161945 119.57167904 -104.57911353 127.7577782 -114.16796875 136.92285156 C-115.58032996 138.2698958 -117.0086914 139.60010172 -118.4375 140.9296875 C-148.29369624 169.51360265 -164.2556264 211.82886014 -165.55859375 252.671875 C-166.13392894 281.91101497 -158.82755871 310.7594177 -144.625 336.3125 C-144.06167969 337.36308594 -143.49835938 338.41367187 -142.91796875 339.49609375 C-136.388376 351.25547742 -127.85550716 361.57176381 -118.625 371.3125 C-117.78324219 372.20710938 -116.94148438 373.10171875 -116.07421875 374.0234375 C-86.19580496 404.89635711 -43.006673 421.58872818 -0.38427734 422.32373047 C28.18802619 422.20743902 55.35603635 414.96425757 80.375 401.3125 C81.43074219 400.74789063 82.48648438 400.18328125 83.57421875 399.6015625 C95.32322242 393.05898006 105.63524791 384.5420746 115.375 375.3125 C116.26960938 374.47074219 117.16421875 373.62898438 118.0859375 372.76171875 C146.13706043 345.61420342 164.87455872 305.13971004 165.7109375 265.94140625 C165.75144866 262.91899392 165.75749122 259.89764612 165.75 256.875 C165.74968277 255.6903717 165.74968277 255.6903717 165.74935913 254.48181152 C165.71455064 241.41955498 164.72988371 228.99045776 161.375 216.3125 C161.18776367 215.59304199 161.00052734 214.87358398 160.80761719 214.13232422 C159.54774669 209.44208094 158.0527243 204.86893004 156.375 200.3125 C155.99819092 199.28697021 155.99819092 199.28697021 155.61376953 198.24072266 C149.92122585 183.05247232 142.39129692 169.10133915 132.375 156.3125 C131.72402344 155.45785156 131.07304687 154.60320312 130.40234375 153.72265625 C104.04520551 120.17272889 64.43302716 97.25202449 21.98046875 91.65625 C-13.91168345 88.23424632 -47.84051624 93.93311035 -79.625 111.3125 Z " fill="#000000" transform="translate(255.625,-0.3125)"/>
<path d="M0 0 C3.21348985 0.01072057 6.42641949 0.00003228 9.63989258 -0.01269531 C19.87348962 -0.02012932 30.02799903 0.23026058 40.22387695 1.15136719 C41.55623634 1.2675943 41.55623634 1.2675943 42.91551208 1.38616943 C49.03101069 2.00928217 49.03101069 2.00928217 51.2824707 4.26074219 C51.7691592 7.12774871 52.12503529 9.90611691 52.3918457 12.79589844 C52.47593689 13.67923355 52.56002808 14.56256866 52.64666748 15.47267151 C53.53647357 25.7742703 53.58316684 36.07204423 53.54321289 46.40551758 C53.53249292 49.69143157 53.54317881 52.97679773 53.5559082 56.26269531 C53.56327504 66.62483372 53.32546102 76.90934607 52.3918457 87.23339844 C52.27561859 88.56291786 52.27561859 88.56291786 52.15704346 89.91929626 C51.53458877 96.00862412 51.53458877 96.00862412 49.2824707 98.26074219 C46.24237963 98.74618435 43.28524998 99.10306121 40.22387695 99.37011719 C39.29305801 99.45420837 38.36223907 99.53829956 37.4032135 99.62493896 C27.08584919 100.47606479 16.78150792 100.56246547 6.43457031 100.52148438 C3.21896577 100.51073883 0.00391817 100.52146889 -3.21166992 100.53417969 C-13.21090452 100.54144192 -23.13017265 100.32199897 -33.08862305 99.37011719 C-33.92136246 99.29263245 -34.75410187 99.21514771 -35.61207581 99.13531494 C-39.33812286 98.73190941 -41.54943725 98.37280355 -44.7175293 96.26074219 C-45.28471304 93.18766547 -45.64803629 90.3014848 -45.8894043 87.19824219 C-45.96898376 86.2672168 -46.04856323 85.33619141 -46.1305542 84.37695312 C-46.93217285 74.08144999 -47.01923065 63.78948367 -46.97827148 53.46777344 C-46.96753738 50.26315405 -46.97825012 47.05909495 -46.9909668 43.85449219 C-46.99917975 33.64617797 -46.75907319 23.49777397 -45.8894043 13.32324219 C-45.82029846 12.43475586 -45.75119263 11.54626953 -45.67999268 10.63085938 C-45.43920898 8.17089844 -45.43920898 8.17089844 -44.7175293 4.26074219 C-40.93329149 1.73791698 -37.50153597 1.56197993 -33.08862305 1.15136719 C-32.20887314 1.067276 -31.32912323 0.98318481 -30.42271423 0.89654541 C-20.29022387 0.01619408 -10.16435396 -0.04017837 0 0 Z " fill="#000000" transform="translate(252.717529296875,205.7392578125)"/>
<path d="M0 0 C-0.0707373 0.85335937 -0.14147461 1.70671875 -0.21435547 2.5859375 C-1.09333235 14.5733902 -1.1525721 26.52905352 -1.13037109 38.54492188 C-1.12501005 41.99353429 -1.13034696 45.44201651 -1.13671875 48.890625 C-1.13988513 60.63410811 -0.97047309 72.2924249 0 84 C-22.09616182 82.08657199 -48.35032815 71.08722124 -63 54 C-66.91298407 48.32851669 -68.05341614 43.78136641 -67 37 C-60.75009518 21.89606335 -43.42324737 13.8401582 -29.14501953 7.83789062 C-22.25122336 5.14502602 -15.11995075 3.00944182 -8 1 C-7.33959717 0.81099121 -6.67919434 0.62198242 -5.9987793 0.42724609 C-4 0 -4 0 0 0 Z " fill="#000000" transform="translate(183,214)"/>
<path d="M0 0 C22.09616182 1.91342801 48.35032815 12.91277876 63 30 C66.91298407 35.67148331 68.05341614 40.21863359 67 47 C60.74672201 62.11208849 43.41364538 70.16239548 29.12744141 76.16210938 C25.15781585 77.72554235 21.124428 79.07325218 17.0625 80.375 C15.89146729 80.75132568 15.89146729 80.75132568 14.69677734 81.13525391 C9.79407764 82.63757594 5.10403801 83.50062882 0 84 C0.10610596 82.71996094 0.10610596 82.71996094 0.21435547 81.4140625 C1.09333235 69.4266098 1.1525721 57.47094648 1.13037109 45.45507812 C1.12501005 42.00646571 1.13034696 38.55798349 1.13671875 35.109375 C1.13988513 23.36589189 0.97047309 11.7075751 0 0 Z " fill="#000000" transform="translate(329,214)"/>
<path d="M0 0 C15.92135377 10.77581087 24.07441607 30.72760802 29.75 48.4375 C30.00088379 49.21818848 30.25176758 49.99887695 30.51025391 50.80322266 C32.01556678 55.71568271 32.78946222 60.39578353 33.375 65.5 C32.20855957 65.43417725 31.04211914 65.36835449 29.84033203 65.30053711 C7.94393691 64.08411796 -13.71600215 62.98444029 -35.625 64.5 C-37.25773778 64.60018352 -38.89054717 64.69920929 -40.5234375 64.796875 C-43.89284701 65.00437858 -47.25924758 65.2389598 -50.625 65.5 C-48.78517166 44.25376312 -38.452945 19.14539739 -22.625 4.5 C-22.03460938 3.94957031 -21.44421875 3.39914063 -20.8359375 2.83203125 C-14.72578639 -2.54068783 -7.4136052 -3.0676987 0 0 Z " fill="#000000" transform="translate(264.625,117.5)"/>
<path d="M0 0 C1.16644043 0.06582275 2.33288086 0.13164551 3.53466797 0.19946289 C25.43106309 1.41588204 47.09100215 2.51555971 69 1 C70.63273778 0.89981648 72.26554717 0.80079071 73.8984375 0.703125 C77.26784701 0.49562142 80.63424758 0.2610402 84 0 C82.08657199 22.09616182 71.08722124 48.35032815 54 63 C48.32851669 66.91298407 43.78136641 68.05341614 37 67 C21.88791151 60.74672201 13.83760452 43.41364538 7.83789062 29.12744141 C6.27445765 25.15781585 4.92674782 21.124428 3.625 17.0625 C3.37411621 16.28181152 3.12323242 15.50112305 2.86474609 14.69677734 C1.35943322 9.78431729 0.58553778 5.10421647 0 0 Z " fill="#000000" transform="translate(214,329)"/>
<path d="M0 0 C-1.14758104 2.98019769 -2.3956546 5.89502444 -3.734375 8.79296875 C-10.57655846 23.6486276 -15.72301196 38.56154932 -19.2644043 54.54052734 C-19.54151245 55.74056396 -19.54151245 55.74056396 -19.82421875 56.96484375 C-19.97979248 57.6724585 -20.13536621 58.38007324 -20.2956543 59.10913086 C-21.16101563 61.43225859 -22.04325635 62.47966644 -24 64 C-26.13452148 64.78027344 -26.13452148 64.78027344 -28.62109375 65.359375 C-29.54656006 65.58415527 -30.47202637 65.80893555 -31.42553711 66.04052734 C-32.41948486 66.27465332 -33.41343262 66.5087793 -34.4375 66.75 C-50.42990498 70.73774916 -65.43273192 75.75266229 -80.0078125 83.49609375 C-83 85 -83 85 -85 85 C-81.88183864 60.50016075 -58.04575258 35.26962323 -39.59179688 20.51928711 C-29.67238367 12.85686055 -12.97155994 0 0 0 Z " fill="#000000" transform="translate(209,124)"/>
<path d="M0 0 C2.98019769 1.14758104 5.89502444 2.3956546 8.79296875 3.734375 C23.6486276 10.57655846 38.56154932 15.72301196 54.54052734 19.2644043 C55.74056396 19.54151245 55.74056396 19.54151245 56.96484375 19.82421875 C57.6724585 19.97979248 58.38007324 20.13536621 59.10913086 20.2956543 C61.43225859 21.16101563 62.47966644 22.04325635 64 24 C64.78027344 26.13452148 64.78027344 26.13452148 65.359375 28.62109375 C65.69654541 30.00929321 65.69654541 30.00929321 66.04052734 31.42553711 C66.27465332 32.41948486 66.5087793 33.41343262 66.75 34.4375 C70.73774916 50.42990498 75.75266229 65.43273192 83.49609375 80.0078125 C85 83 85 83 85 85 C71.85683509 83.30410775 58.23529882 73.87224996 48 66 C47.07058594 65.29230469 46.14117187 64.58460938 45.18359375 63.85546875 C25.09518559 47.99619915 8.72185446 27.28462077 0 3 C0 2.01 0 1.02 0 0 Z " fill="#000000" transform="translate(124,303)"/>
<path d="M0 0 C24.49983925 3.11816136 49.73037677 26.95424742 64.48071289 45.40820312 C72.14313945 55.32761633 85 72.02844006 85 85 C82.05316645 83.86615975 79.17344016 82.63332361 76.3125 81.30078125 C61.18719915 74.29179798 45.63087338 68.56042032 29.23999023 65.32910156 C25.53630846 64.56215666 23.37057774 63.97307513 21 61 C20.21972656 58.86547852 20.21972656 58.86547852 19.640625 56.37890625 C19.30345459 54.99070679 19.30345459 54.99070679 18.95947266 53.57446289 C18.60828369 52.08354126 18.60828369 52.08354126 18.25 50.5625 C14.26225084 34.57009502 9.24733771 19.56726808 1.50390625 4.9921875 C0 2 0 2 0 0 Z " fill="#000000" transform="translate(303,124)"/>
<path d="M0 0 C-1.69589225 13.14316491 -11.12775004 26.76470118 -19 37 C-19.70769531 37.92941406 -20.41539062 38.85882813 -21.14453125 39.81640625 C-37.00380085 59.90481441 -57.71537923 76.27814554 -82 85 C-82.99 85 -83.98 85 -85 85 C-83.85241896 82.01980231 -82.6043454 79.10497556 -81.265625 76.20703125 C-74.42344154 61.3513724 -69.27698804 46.43845068 -65.7355957 30.45947266 C-65.55085693 29.65944824 -65.36611816 28.85942383 -65.17578125 28.03515625 C-65.02020752 27.3275415 -64.86463379 26.61992676 -64.7043457 25.89086914 C-63.84534551 23.58481837 -62.93029047 22.51930367 -61 21 C-59.10913086 20.2956543 -59.10913086 20.2956543 -56.96484375 19.82421875 C-56.16481934 19.63947998 -55.36479492 19.45474121 -54.54052734 19.2644043 C-53.68152832 19.07402588 -52.8225293 18.88364746 -51.9375 18.6875 C-36.91237599 15.12449217 -13.9710548 0 0 0 Z " fill="#000000" transform="translate(388,303)"/>
</svg>
