<?xml version="1.0" encoding="UTF-8"?>
<svg version="1.1" xmlns="http://www.w3.org/2000/svg" width="512" height="512">
<path d="M0 0 C2.4668957 1.92574611 4.81756076 3.92387174 7.14453125 6.015625 C8.06105469 6.79292969 8.06105469 6.79292969 8.99609375 7.5859375 C18.75408445 16.4527875 24.54190922 28.55781857 28.14453125 41.015625 C28.38945312 41.81871094 28.634375 42.62179688 28.88671875 43.44921875 C33.85669876 63.09085208 28.94386801 83.07371491 19.19677734 100.27685547 C16.85468388 104.14701547 14.09721546 107.60418009 11.14453125 111.015625 C16.67103459 117.75642925 22.83902684 123.8227379 29.01953125 129.953125 C30.10049399 131.02906227 31.18122508 132.10523231 32.26171875 133.18164062 C34.88665766 135.79565792 37.51471753 138.40651096 40.14453125 141.015625 C43.0042456 139.33817285 45.74693464 137.64957126 48.3515625 135.59765625 C66.11456193 121.89646929 86.94415772 112.67812317 109.14453125 109.015625 C110.2634375 108.82742187 111.38234375 108.63921875 112.53515625 108.4453125 C116.14453125 108.015625 116.14453125 108.015625 124.14453125 108.015625 C124.14453125 96.135625 124.14453125 84.255625 124.14453125 72.015625 C121.17453125 71.355625 118.20453125 70.695625 115.14453125 70.015625 C103.56645183 64.40043033 97.5057285 55.33858963 92.83203125 43.765625 C90.71987003 32.24474562 91.60564542 21.31635543 97.89453125 11.328125 C104.28082405 2.48077302 111.78530757 -3.7712472 122.59375 -6.6328125 C134.9629999 -8.33760958 145.8396556 -6.98550245 156.046875 0.359375 C164.50585641 7.03834729 170.16653653 15.2265629 172.14453125 26.015625 C173.10872684 37.86781384 171.6083512 48.81845817 163.83984375 58.20703125 C156.81505797 65.70121516 150.36512389 70.31219289 140.14453125 72.015625 C140.14453125 83.895625 140.14453125 95.775625 140.14453125 108.015625 C142.78453125 108.015625 145.42453125 108.015625 148.14453125 108.015625 C176.24227225 111.28080591 201.40535187 123.12968641 223.14453125 141.015625 C230.91073554 134.57132782 237.96866571 127.55710127 244.5 119.86328125 C246.12423068 118.038433 247.84542427 116.41584037 249.64453125 114.765625 C250.46953125 113.858125 251.29453125 112.950625 252.14453125 112.015625 C251.88305407 108.5316183 250.19183061 106.64839094 247.95703125 104.078125 C236.06330194 89.11347378 232.37259249 69.68108058 234.14453125 51.015625 C236.19588156 35.33913183 242.54537293 21.80665654 253.14453125 10.015625 C253.92183594 9.09910156 253.92183594 9.09910156 254.71484375 8.1640625 C265.16702108 -3.33858491 282.4525493 -11.95801733 297.8828125 -13.20581055 C319.45927874 -14.03363799 338.99443237 -11.18277961 355.64453125 3.578125 C357.15394397 5.04768523 358.6549115 6.52600525 360.14453125 8.015625 C361.07652344 8.82386719 361.07652344 8.82386719 362.02734375 9.6484375 C372.90858073 19.35859965 380.19120828 36.34106923 381.36767578 50.74829102 C382.27456736 73.81513713 377.99521685 93.42484418 362.14453125 111.015625 C361.59152344 111.64984375 361.03851563 112.2840625 360.46875 112.9375 C348.52418233 125.82280928 330.07910987 133.39333679 312.75 134.296875 C298.2180053 134.74155807 282.80902861 132.66270011 270.5546875 124.234375 C269.75933594 123.8321875 268.96398437 123.43 268.14453125 123.015625 C265.2582388 124.11768598 263.27773878 125.63575195 261.12011719 127.81298828 C260.55983826 128.37341827 259.99955933 128.93384827 259.42230225 129.51126099 C258.83048157 130.11340424 258.23866089 130.71554749 257.62890625 131.3359375 C257.01307678 131.95459686 256.39724731 132.57325623 255.76275635 133.21066284 C253.80192789 135.18266314 251.84817824 137.16151237 249.89453125 139.140625 C248.56426326 140.48092664 247.23353925 141.82077583 245.90234375 143.16015625 C242.64442975 146.44009089 239.39284592 149.72618442 236.14453125 153.015625 C238.55396476 156.65892675 241.02439429 160.21250053 243.64550781 163.70678711 C249.55621006 171.67514391 254.08127691 179.98023047 258.14453125 189.015625 C258.428125 189.64082031 258.71171875 190.26601562 259.00390625 190.91015625 C265.56431931 205.60919494 269.14453125 220.89602298 269.14453125 237.015625 C281.02453125 237.015625 292.90453125 237.015625 305.14453125 237.015625 C305.47453125 235.035625 305.80453125 233.055625 306.14453125 231.015625 C308.98448 222.42816091 315.86176024 214.62268169 323.58203125 210.078125 C335.83313836 204.10094126 347.20476583 203.32600918 360.171875 207.76171875 C369.44783838 211.67444443 377.41344065 219.67829438 381.58203125 228.828125 C385.3824833 238.18439485 385.74819741 249.57938855 382.39453125 259.140625 C380.71563389 263.08958077 378.75322683 266.59171205 376.14453125 270.015625 C375.58765625 270.840625 375.03078125 271.665625 374.45703125 272.515625 C367.68687179 279.83471631 358.36174741 284.42884638 348.4609375 285.36328125 C334.49937941 285.68666074 324.68449042 282.18882735 314.39453125 272.765625 C308.940294 267.04501803 306.42921635 260.7237356 305.14453125 253.015625 C293.26453125 253.015625 281.38453125 253.015625 269.14453125 253.015625 C269.14453125 255.985625 269.14453125 258.955625 269.14453125 262.015625 C268.85668945 264.63525391 268.85668945 264.63525391 268.4453125 266.7421875 C268.21376465 267.93666504 268.21376465 267.93666504 267.97753906 269.15527344 C267.80577148 269.97543945 267.63400391 270.79560547 267.45703125 271.640625 C267.27624023 272.51235352 267.09544922 273.38408203 266.90917969 274.28222656 C263.92527099 288.14443953 258.87603885 300.58233912 252.14453125 313.015625 C251.65082031 313.93085938 251.15710938 314.84609375 250.6484375 315.7890625 C246.51092774 323.03263483 241.31640977 329.49456078 236.14453125 336.015625 C241.81027174 342.94373224 248.17486764 349.15766642 254.51953125 355.453125 C255.6486708 356.57723967 256.77757903 357.70158674 257.90625 358.82617188 C260.64968313 361.55867735 263.3962311 364.28801509 266.14453125 367.015625 C266.94842285 366.5422168 267.75231445 366.06880859 268.58056641 365.58105469 C270.17843994 364.64374512 270.17843994 364.64374512 271.80859375 363.6875 C273.38568115 362.7608252 273.38568115 362.7608252 274.99462891 361.81542969 C292.48526409 351.82155567 312.71015455 348.76585823 332.28759766 354.04272461 C351.93548824 359.99819884 367.99905553 372.32621529 377.9921875 390.34765625 C386.82964956 408.65227668 389.38023381 429.56216329 382.88085938 449.02148438 C375.34411636 469.43266374 361.71678508 484.46713031 342.14453125 494.015625 C324.68470152 501.05653536 302.77595942 502.09611934 285.14453125 495.015625 C275.42882315 490.80895118 267.66146661 485.53256036 260.14453125 478.015625 C259.21253906 477.20738281 259.21253906 477.20738281 258.26171875 476.3828125 C244.96933679 464.5210008 239.18358518 445.02777496 238.18359375 427.82421875 C238.02049747 411.92233133 242.1615977 397.96773905 250.7890625 384.5390625 C252.46000128 381.90573058 252.46000128 381.90573058 252.14453125 378.015625 C250.16794462 375.68983139 248.20554826 373.61233024 246.01953125 371.5 C245.39804199 370.88417053 244.77655273 370.26834106 244.13623047 369.6338501 C242.14818071 367.66819897 240.14667962 365.71690383 238.14453125 363.765625 C236.79466387 362.43581797 235.44569377 361.10509945 234.09765625 359.7734375 C230.79026873 356.5101637 227.47074922 353.25969853 224.14453125 350.015625 C220.38604147 351.44128578 217.85612384 352.91928693 214.83203125 355.578125 C194.3455971 372.3508222 166.42718418 382.015625 140.14453125 382.015625 C140.14453125 393.895625 140.14453125 405.775625 140.14453125 418.015625 C142.78453125 418.675625 145.42453125 419.335625 148.14453125 420.015625 C158.41031191 424.56658881 166.02265301 432.60245892 170.14453125 443.015625 C170.55703125 444.046875 170.96953125 445.078125 171.39453125 446.140625 C173.58322438 457.44887286 172.69982961 468.3956166 166.70703125 478.328125 C165.8659009 479.56624903 165.01298096 480.7965079 164.14453125 482.015625 C163.56703125 482.881875 162.98953125 483.748125 162.39453125 484.640625 C154.96598698 492.48186617 144.98337991 497.01861635 134.22436523 497.48779297 C123.96578586 497.62507176 115.38290322 495.29247983 107.14453125 489.015625 C105.90703125 488.1803125 105.90703125 488.1803125 104.64453125 487.328125 C97.18959638 480.43231025 92.67382619 470.9658749 91.90625 460.88671875 C91.60373154 446.89125969 95.19256953 437.40829785 104.765625 427.3046875 C109.78778514 422.559529 117.11500263 418.015625 124.14453125 418.015625 C124.14453125 406.135625 124.14453125 394.255625 124.14453125 382.015625 C120.84453125 382.015625 117.54453125 382.015625 114.14453125 382.015625 C90.11258135 379.37889068 66.44595839 369.46257633 47.80859375 354.14453125 C44.87270801 351.70136021 44.87270801 351.70136021 40.14453125 349.015625 C30.57453125 358.585625 21.00453125 368.155625 11.14453125 378.015625 C12.58136255 381.60770326 14.05689671 384.70124688 15.96264648 388.02563477 C26.24479594 406.16962638 28.59908424 426.58404431 23.140625 446.71875 C16.70907113 465.99218535 4.20392726 481.39142318 -13.4921875 491.375 C-31.49562975 500.15716695 -52.79583038 502.25763077 -71.90234375 495.74316406 C-92.598821 488.03372629 -106.89356342 474.37071603 -116.41796875 454.41796875 C-124.22549618 435.93873943 -123.83858051 415.40027333 -116.60546875 396.828125 C-107.53548581 376.50164538 -92.2498259 362.74757572 -71.60546875 354.7578125 C-54.2166851 349.20737486 -33.19223252 349.79640687 -16.7890625 357.9921875 C-14.19060535 359.34216357 -11.6368244 360.75296127 -9.09765625 362.2109375 C-5.64544892 364.2224631 -5.64544892 364.2224631 -0.85546875 366.015625 C8.71453125 356.445625 18.28453125 346.875625 28.14453125 337.015625 C25.70136203 333.35087117 23.275881 329.83369759 20.64355469 326.32446289 C14.73285244 318.35610609 10.20778559 310.05101953 6.14453125 301.015625 C5.8609375 300.39042969 5.57734375 299.76523437 5.28515625 299.12109375 C-1.27525681 284.42205506 -4.85546875 269.13522702 -4.85546875 253.015625 C-16.73546875 253.015625 -28.61546875 253.015625 -40.85546875 253.015625 C-41.51546875 255.985625 -42.17546875 258.955625 -42.85546875 262.015625 C-48.14499198 272.92219612 -56.81156643 279.53186084 -67.85546875 284.015625 C-78.20931864 286.77108505 -89.31477772 285.74547522 -98.85546875 281.015625 C-102.23046875 279.015625 -102.23046875 279.015625 -104.85546875 277.015625 C-106.09296875 276.1803125 -106.09296875 276.1803125 -107.35546875 275.328125 C-115.30952992 267.97061841 -119.85543715 257.87400099 -120.328125 247.09594727 C-120.49610449 234.31600779 -116.57129042 225.04081273 -107.8203125 215.88671875 C-99.06828521 207.50514764 -89.35353985 204.60844968 -77.4375 204.7421875 C-65.35948476 205.6641734 -56.60314656 210.67114022 -48.54296875 219.453125 C-44.06703324 224.99831178 -42.0293739 229.97219407 -40.85546875 237.015625 C-28.97546875 237.015625 -17.09546875 237.015625 -4.85546875 237.015625 C-4.85546875 234.045625 -4.85546875 231.075625 -4.85546875 228.015625 C-4.51795537 224.80409732 -3.88386741 221.67727185 -3.23046875 218.515625 C-3.05225586 217.64905273 -2.87404297 216.78248047 -2.69042969 215.88964844 C1.600228 196.03355916 10.08684494 178.29239123 22.14453125 162.015625 C22.77230469 161.16355469 23.40007812 160.31148437 24.046875 159.43359375 C25.39931101 157.61655619 26.76643426 155.81315594 28.14453125 154.015625 C22.47879076 147.08751776 16.11419486 140.87358358 9.76953125 134.578125 C8.6403917 133.45401033 7.51148347 132.32966326 6.3828125 131.20507812 C3.63937937 128.47257265 0.8928314 125.74323491 -1.85546875 123.015625 C-5.31560983 124.38430944 -8.68072238 125.85891365 -12.04296875 127.453125 C-29.89523561 135.59837192 -50.3482604 136.84933465 -68.85546875 130.015625 C-87.26331489 122.55950023 -102.19749756 110.19305705 -110.85546875 92.015625 C-117.59197279 75.17865567 -120.95003267 53.30271242 -113.85546875 36.015625 C-109.93779705 26.93310914 -105.55887978 18.37651345 -98.85546875 11.015625 C-98.17871094 10.25894531 -97.50195312 9.50226562 -96.8046875 8.72265625 C-71.63840371 -17.96343864 -29.63869638 -20.59706944 0 0 Z " fill="#EEE1DC" transform="translate(123.85546875,12.984375)"/>
<path d="M0 0 C2.4668957 1.92574611 4.81756076 3.92387174 7.14453125 6.015625 C8.06105469 6.79292969 8.06105469 6.79292969 8.99609375 7.5859375 C18.75408445 16.4527875 24.54190922 28.55781857 28.14453125 41.015625 C28.38945312 41.81871094 28.634375 42.62179688 28.88671875 43.44921875 C33.85669876 63.09085208 28.94386801 83.07371491 19.19677734 100.27685547 C16.85468388 104.14701547 14.09721546 107.60418009 11.14453125 111.015625 C16.67103459 117.75642925 22.83902684 123.8227379 29.01953125 129.953125 C30.10049399 131.02906227 31.18122508 132.10523231 32.26171875 133.18164062 C34.88665766 135.79565792 37.51471753 138.40651096 40.14453125 141.015625 C43.0042456 139.33817285 45.74693464 137.64957126 48.3515625 135.59765625 C63.22502261 124.12526621 87.61673392 108.794069 107.20703125 110.140625 C140.88849318 115.16684659 172.86564653 134.89671229 193.42773438 161.84155273 C211.68704584 186.54876962 221.60568432 214.73436483 221.51953125 245.515625 C221.51931976 246.21605927 221.51910828 246.91649353 221.51889038 247.63815308 C221.48337206 259.46878276 220.39217743 270.60750059 217.14453125 282.015625 C216.9626123 282.68255371 216.78069336 283.34948242 216.59326172 284.03662109 C213.46716036 295.24756367 208.58883001 307.8836436 201.14453125 317.015625 C200.58507812 316.64050781 200.025625 316.26539063 199.44921875 315.87890625 C190.49266853 310.16226568 180.98853381 306.81286626 170.64453125 304.515625 C165.42901313 303.25335865 162.69074505 302.09377087 159.14453125 298.015625 C155.14453125 290.75776336 155.14453125 290.75776336 155.14453125 287.015625 C156.74994948 285.93234279 158.40689122 284.92511983 160.08203125 283.953125 C173.70123745 275.4433009 184.11771039 261.51689307 188.69317627 246.02758789 C190.10267149 239.74461286 189.83400178 233.17088615 189.74145508 226.76904297 C189.70716604 224.15091686 189.72084925 221.53618811 189.74023438 218.91796875 C189.72495312 199.73569716 185.25574176 182.52263802 171.59375 168.234375 C159.32794963 157.12277275 143.93514831 152.21598701 127.6015625 152.640625 C116.22514746 153.33025397 106.22631885 158.34760155 97.14453125 165.015625 C96.51289063 165.44101563 95.88125 165.86640625 95.23046875 166.3046875 C82.5370785 175.75227933 76.78893267 193.42736785 74.55639648 208.29296875 C73.84805839 214.69530378 74.00088589 221.02456137 74.20703125 227.453125 C74.22926758 229.40702148 74.22926758 229.40702148 74.25195312 231.40039062 C74.81602586 250.60754512 83.38751425 265.84965021 97.14453125 279.015625 C100.9356175 282.01668069 104.81095202 284.84883539 109.14453125 287.015625 C107.477592 293.11418323 105.81940735 297.6524073 101.14453125 302.015625 C96.62341629 304.15720577 92.18952006 305.2517578 87.33203125 306.390625 C75.4432254 309.28047327 63.8408776 314.68898169 56.43359375 324.6953125 C52.48027205 331.81129156 51.65054524 337.99861667 51.45703125 346.015625 C51.42287109 346.98113281 51.38871094 347.94664062 51.35351562 348.94140625 C51.27180426 351.29936282 51.20241006 353.65698363 51.14453125 356.015625 C50.25765625 355.4175 49.37078125 354.819375 48.45703125 354.203125 C45.73157035 352.40329233 42.94520537 350.69602947 40.14453125 349.015625 C30.57453125 358.585625 21.00453125 368.155625 11.14453125 378.015625 C12.58136255 381.60770326 14.05689671 384.70124688 15.96264648 388.02563477 C26.24479594 406.16962638 28.59908424 426.58404431 23.140625 446.71875 C16.70907113 465.99218535 4.20392726 481.39142318 -13.4921875 491.375 C-31.49562975 500.15716695 -52.79583038 502.25763077 -71.90234375 495.74316406 C-92.598821 488.03372629 -106.89356342 474.37071603 -116.41796875 454.41796875 C-124.22549618 435.93873943 -123.83858051 415.40027333 -116.60546875 396.828125 C-107.53548581 376.50164538 -92.2498259 362.74757572 -71.60546875 354.7578125 C-54.2166851 349.20737486 -33.19223252 349.79640687 -16.7890625 357.9921875 C-14.19060535 359.34216357 -11.6368244 360.75296127 -9.09765625 362.2109375 C-5.64544892 364.2224631 -5.64544892 364.2224631 -0.85546875 366.015625 C8.71453125 356.445625 18.28453125 346.875625 28.14453125 337.015625 C25.70136203 333.35087117 23.275881 329.83369759 20.64355469 326.32446289 C14.73285244 318.35610609 10.20778559 310.05101953 6.14453125 301.015625 C5.8609375 300.39042969 5.57734375 299.76523437 5.28515625 299.12109375 C-1.27525681 284.42205506 -4.85546875 269.13522702 -4.85546875 253.015625 C-16.73546875 253.015625 -28.61546875 253.015625 -40.85546875 253.015625 C-41.51546875 255.985625 -42.17546875 258.955625 -42.85546875 262.015625 C-48.14499198 272.92219612 -56.81156643 279.53186084 -67.85546875 284.015625 C-78.20931864 286.77108505 -89.31477772 285.74547522 -98.85546875 281.015625 C-102.23046875 279.015625 -102.23046875 279.015625 -104.85546875 277.015625 C-106.09296875 276.1803125 -106.09296875 276.1803125 -107.35546875 275.328125 C-115.30952992 267.97061841 -119.85543715 257.87400099 -120.328125 247.09594727 C-120.49610449 234.31600779 -116.57129042 225.04081273 -107.8203125 215.88671875 C-99.06828521 207.50514764 -89.35353985 204.60844968 -77.4375 204.7421875 C-65.35948476 205.6641734 -56.60314656 210.67114022 -48.54296875 219.453125 C-44.06703324 224.99831178 -42.0293739 229.97219407 -40.85546875 237.015625 C-28.97546875 237.015625 -17.09546875 237.015625 -4.85546875 237.015625 C-4.85546875 234.045625 -4.85546875 231.075625 -4.85546875 228.015625 C-4.51795537 224.80409732 -3.88386741 221.67727185 -3.23046875 218.515625 C-3.05225586 217.64905273 -2.87404297 216.78248047 -2.69042969 215.88964844 C1.600228 196.03355916 10.08684494 178.29239123 22.14453125 162.015625 C22.77230469 161.16355469 23.40007812 160.31148437 24.046875 159.43359375 C25.39931101 157.61655619 26.76643426 155.81315594 28.14453125 154.015625 C22.47879076 147.08751776 16.11419486 140.87358358 9.76953125 134.578125 C8.6403917 133.45401033 7.51148347 132.32966326 6.3828125 131.20507812 C3.63937937 128.47257265 0.8928314 125.74323491 -1.85546875 123.015625 C-5.31560983 124.38430944 -8.68072238 125.85891365 -12.04296875 127.453125 C-29.89523561 135.59837192 -50.3482604 136.84933465 -68.85546875 130.015625 C-87.26331489 122.55950023 -102.19749756 110.19305705 -110.85546875 92.015625 C-117.59197279 75.17865567 -120.95003267 53.30271242 -113.85546875 36.015625 C-109.93779705 26.93310914 -105.55887978 18.37651345 -98.85546875 11.015625 C-98.17871094 10.25894531 -97.50195312 9.50226562 -96.8046875 8.72265625 C-71.63840371 -17.96343864 -29.63869638 -20.59706944 0 0 Z " fill="#F7F1EF" transform="translate(123.85546875,12.984375)"/>
<path d="M0 0 C14.68393296 8.20101092 23.84731341 20.86300272 29.12890625 36.6484375 C30.77253363 42.74041859 31.45712677 48.52273797 31.5 54.8203125 C31.50902847 55.66458801 31.51805695 56.50886353 31.52735901 57.37872314 C31.5417661 59.15348825 31.55072426 60.92830532 31.55444336 62.703125 C31.56631795 65.37854208 31.61557773 68.05163168 31.66601562 70.7265625 C31.84423877 89.55009772 25.46424482 103.42232972 12.53515625 117.28125 C1.97269349 127.67224421 1.97269349 127.67224421 -3.87109375 128.6484375 C-2.96715405 130.59190786 -2.04741875 132.52803657 -1.12109375 134.4609375 C-0.610625 135.53988281 -0.10015625 136.61882812 0.42578125 137.73046875 C2.78961273 141.78042773 4.66998594 143.15956447 9.08984375 144.640625 C10.21648437 144.93195313 11.343125 145.22328125 12.50390625 145.5234375 C27.32708356 149.60674518 41.85842486 153.64030965 50.12890625 167.6484375 C50.54140625 168.30585938 50.95390625 168.96328125 51.37890625 169.640625 C55.59273044 177.86343471 56.66140974 189.76099818 54.12890625 198.6484375 C50.71779671 202.79012365 47.12396706 204.68470626 42.23779297 206.74658203 C40.09316336 207.66372278 38.04493834 208.69234327 35.9765625 209.76953125 C18.76301596 218.57441439 0.50087596 223.6484375 -18.87109375 223.6484375 C-18.87109375 235.5284375 -18.87109375 247.4084375 -18.87109375 259.6484375 C-16.23109375 260.3084375 -13.59109375 260.9684375 -10.87109375 261.6484375 C-0.60531309 266.19940131 7.00702801 274.23527142 11.12890625 284.6484375 C11.54140625 285.6796875 11.95390625 286.7109375 12.37890625 287.7734375 C14.56759938 299.08168536 13.68420461 310.0284291 7.69140625 319.9609375 C6.8502759 321.19906153 5.99735596 322.4293204 5.12890625 323.6484375 C4.55140625 324.5146875 3.97390625 325.3809375 3.37890625 326.2734375 C-4.04963802 334.11467867 -14.03224509 338.65142885 -24.79125977 339.12060547 C-35.04983914 339.25788426 -43.63272178 336.92529233 -51.87109375 330.6484375 C-52.69609375 330.0915625 -53.52109375 329.5346875 -54.37109375 328.9609375 C-61.82602862 322.06512275 -66.34179881 312.5986874 -67.109375 302.51953125 C-67.41189346 288.52407219 -63.82305547 279.04111035 -54.25 268.9375 C-49.22783986 264.1923415 -41.90062237 259.6484375 -34.87109375 259.6484375 C-34.87109375 247.7684375 -34.87109375 235.8884375 -34.87109375 223.6484375 C-38.17109375 223.6484375 -41.47109375 223.6484375 -44.87109375 223.6484375 C-64.84750986 221.45666771 -83.69843061 213.82321444 -100.87109375 203.6484375 C-101.55308838 203.30482178 -102.23508301 202.96120605 -102.93774414 202.60717773 C-104.99122243 201.44129679 -106.38097901 200.48568758 -107.87109375 198.6484375 C-108.82357397 195.05561484 -108.71445115 191.6545106 -108.55859375 187.9609375 C-108.56052734 187.01798828 -108.56246094 186.07503906 -108.56445312 185.10351562 C-108.37267553 175.48157094 -105.51890491 167.45722942 -98.82421875 160.453125 C-89.52463402 151.86030871 -77.35201792 147.80264549 -65.18359375 145.0234375 C-60.78543213 143.96550133 -57.84547955 143.25375362 -54.87109375 139.6484375 C-53.01194105 136.05476804 -51.39006387 132.39738502 -49.87109375 128.6484375 C-50.598125 128.390625 -51.32515625 128.1328125 -52.07421875 127.8671875 C-65.67804202 121.93926451 -76.33821338 107.42869111 -81.92773438 94.13549805 C-85.03709558 85.8324709 -85.59113994 78.02178348 -85.74609375 69.2109375 C-85.7925 67.89544922 -85.83890625 66.57996094 -85.88671875 65.22460938 C-86.36061006 46.80664122 -82.80276144 30.72574892 -71.87109375 15.6484375 C-71.43410156 15.01550781 -70.99710938 14.38257813 -70.546875 13.73046875 C-63.58837372 4.59874184 -52.64188809 -1.14853737 -41.87109375 -4.3515625 C-40.93910156 -4.70476562 -40.00710937 -5.05796875 -39.046875 -5.421875 C-25.92823376 -9.26226444 -11.99648024 -5.64732267 0 0 Z " fill="#FEE4C1" transform="translate(282.87109375,171.3515625)"/>
<path d="M0 0 C4.44382315 3.44482415 8.45017895 7.05421668 11.95703125 11.45703125 C13.96696398 14.0729693 13.96696398 14.0729693 16.49609375 16.3828125 C27.89902563 28.30163366 32.13855777 47.04853678 32 63 C30.75672835 85.40109099 21.55198175 103.40945687 5.1875 118.6875 C-11.28665542 132.47001192 -31.05158426 136.39789619 -52 135 C-71.14625555 132.70194703 -88.93938876 122.28127887 -100.8125 107.25 C-113.13447608 89.82927519 -118.27228498 70.40892347 -115.50390625 49.19921875 C-111.54175374 29.07506558 -100.86936142 11.50617651 -83.87109375 -0.1875 C-58.04604556 -16.49065967 -25.6343986 -17.09949461 0 0 Z " fill="#0182FB" transform="translate(118,377)"/>
<path d="M0 0 C15.24343181 13.54511468 24.6294454 31.76344485 25.86328125 52.2734375 C26.39504011 73.20669489 20.25341677 92.84430374 5.625 108.3125 C-6.8937317 121.33460728 -23.46795937 129.92303569 -41.68359375 130.55078125 C-62.10051491 130.92414972 -80.16711754 127.67559625 -95.875 113.75 C-97.38441272 112.28043977 -98.88538025 110.80211975 -100.375 109.3125 C-100.99632812 108.77367187 -101.61765625 108.23484375 -102.2578125 107.6796875 C-115.55019446 95.8178758 -121.33594607 76.32464996 -122.3359375 59.12109375 C-122.4588283 47.13924105 -120.19981668 36.3088979 -115.375 25.3125 C-114.95089844 24.34183594 -114.52679688 23.37117188 -114.08984375 22.37109375 C-110.50560459 15.34598499 -105.56299793 10.02495521 -100.0625 4.4375 C-99.36350586 3.72360107 -98.66451172 3.00970215 -97.94433594 2.27416992 C-71.2296306 -23.92063845 -28.38007659 -22.3193697 0 0 Z " fill="#0182FB" transform="translate(484.375,381.6875)"/>
<path d="M0 0 C0.99273926 0.5882959 1.98547852 1.1765918 3.00830078 1.78271484 C4.04712402 2.41000488 5.08594727 3.03729492 6.15625 3.68359375 C8.30987853 4.95836256 10.46352429 6.23310228 12.6171875 7.5078125 C16.12887873 9.60402707 19.63320195 11.71183409 23.1328125 13.828125 C24.34888459 14.55090534 25.56502296 15.27357417 26.78125 15.99609375 C27.79445313 16.61226563 28.80765625 17.2284375 29.8515625 17.86328125 C33.14101355 19.33849467 35.07377228 19.40388464 38.65625 19.12109375 C41.46053182 18.01874633 41.46053182 18.01874633 44.18359375 16.375 C45.21629395 15.78855713 46.24899414 15.20211426 47.31298828 14.59790039 C48.39563965 13.9661792 49.47829102 13.33445801 50.59375 12.68359375 C51.70733887 12.04993896 52.82092773 11.41628418 53.96826172 10.76342773 C58.8323561 7.98187747 63.65700018 5.15732709 68.38671875 2.15234375 C69.05904541 1.72880615 69.73137207 1.30526855 70.42407227 0.86889648 C72.1523632 -0.23414709 73.86218541 -1.36598213 75.5703125 -2.5 C81.25355941 -5.03947615 86.45166511 -2.83419592 92.03125 -0.75390625 C103.40449181 3.81628276 110.3338289 10.56644431 115.25390625 21.75390625 C118.05894434 29.56703021 118.86344932 39.06752444 116.65625 47.12109375 C113.25239269 51.27085806 109.65216388 53.15700253 104.76513672 55.21923828 C102.62050711 56.13637903 100.57228209 57.16499952 98.50390625 58.2421875 C81.29035971 67.04707064 63.02821971 72.12109375 43.65625 72.12109375 C43.65625 84.00109375 43.65625 95.88109375 43.65625 108.12109375 C46.29625 108.78109375 48.93625 109.44109375 51.65625 110.12109375 C61.92203066 114.67205756 69.53437176 122.70792767 73.65625 133.12109375 C74.06875 134.15234375 74.48125 135.18359375 74.90625 136.24609375 C77.09494313 147.55434161 76.21154836 158.50108535 70.21875 168.43359375 C69.37761965 169.67171778 68.52469971 170.90197665 67.65625 172.12109375 C67.07875 172.98734375 66.50125 173.85359375 65.90625 174.74609375 C58.47770573 182.58733492 48.49509866 187.1240851 37.73608398 187.59326172 C27.47750461 187.73054051 18.89462197 185.39794858 10.65625 179.12109375 C9.83125 178.56421875 9.00625 178.00734375 8.15625 177.43359375 C0.70131513 170.537779 -3.81445506 161.07134365 -4.58203125 150.9921875 C-4.88454971 136.99672844 -1.29571172 127.5137666 8.27734375 117.41015625 C13.29950389 112.66499775 20.62672138 108.12109375 27.65625 108.12109375 C27.65625 96.24109375 27.65625 84.36109375 27.65625 72.12109375 C24.35625 72.12109375 21.05625 72.12109375 17.65625 72.12109375 C-2.32016611 69.92932396 -21.17108686 62.29587069 -38.34375 52.12109375 C-39.02574463 51.77747803 -39.70773926 51.4338623 -40.41040039 51.07983398 C-42.46387868 49.91395304 -43.85363526 48.95834383 -45.34375 47.12109375 C-46.29623022 43.52827109 -46.1871074 40.12716685 -46.03125 36.43359375 C-46.03318359 35.49064453 -46.03511719 34.54769531 -46.03710938 33.57617188 C-45.8453346 23.95436846 -42.9903383 15.93974752 -36.3046875 8.9296875 C-26.4268986 -0.18070346 -12.5377969 -7.51423134 0 0 Z " fill="#FC4755" transform="translate(220.34375,322.87890625)"/>
<path d="M0 0 C2.4668957 1.92574611 4.81756076 3.92387174 7.14453125 6.015625 C7.75554687 6.53382812 8.3665625 7.05203125 8.99609375 7.5859375 C18.75408445 16.4527875 24.54190922 28.55781857 28.14453125 41.015625 C28.38945312 41.81871094 28.634375 42.62179688 28.88671875 43.44921875 C34.03798802 63.80731718 28.60961167 84.42708639 18.14453125 102.015625 C14.26268278 108.02087776 10.18174625 112.19616245 4.14453125 116.015625 C4.00917969 115.16742188 3.87382813 114.31921875 3.734375 113.4453125 C1.0299744 98.70875833 -4.66232361 86.19485015 -17.20703125 77.359375 C-19.05321861 76.18512156 -20.94940067 75.08995428 -22.85546875 74.015625 C-20.92121192 69.9789151 -18.56109131 66.24762597 -16.1953125 62.453125 C-12.62510273 55.95804949 -13.19724661 48.21218705 -13.85546875 41.015625 C-15.05028168 37.30692567 -16.69286516 34.24385935 -18.85546875 31.015625 C-19.45359375 30.0875 -20.05171875 29.159375 -20.66796875 28.203125 C-27.42807996 21.44301379 -34.92491636 19.04509523 -44.29296875 18.640625 C-49.9191739 18.76496103 -54.0319851 20.18714837 -58.85546875 23.015625 C-59.55671875 23.41652344 -60.25796875 23.81742188 -60.98046875 24.23046875 C-66.97343572 28.14632785 -70.66738633 33.20382098 -72.85546875 40.015625 C-74.22902936 48.85818887 -74.02042581 58.42495328 -68.85546875 66.015625 C-67.2601608 68.09449655 -65.58613305 70.04459065 -63.85546875 72.015625 C-63.85546875 72.675625 -63.85546875 73.335625 -63.85546875 74.015625 C-65.61328125 75.34765625 -65.61328125 75.34765625 -67.98046875 76.828125 C-68.80675781 77.36953125 -69.63304687 77.9109375 -70.484375 78.46875 C-71.26683594 78.97921875 -72.04929688 79.4896875 -72.85546875 80.015625 C-81.32844242 85.72191339 -86.90100229 95.86755102 -89.40234375 105.6484375 C-90.1266371 109.43224586 -90.54576569 113.17530703 -90.85546875 117.015625 C-104.71951961 106.03991807 -114.62786532 89.73621028 -116.85546875 72.015625 C-118.46211574 50.20084504 -115.15011678 30.16701374 -100.6875 13.02734375 C-100.08292969 12.36347656 -99.47835937 11.69960938 -98.85546875 11.015625 C-98.17871094 10.25894531 -97.50195312 9.50226562 -96.8046875 8.72265625 C-71.63840371 -17.96343864 -29.63869638 -20.59706944 0 0 Z " fill="#0182FB" transform="translate(123.85546875,12.984375)"/>
<path d="M0 0 C3.57776916 2.78749886 6.79602203 5.79602203 10 9 C10.62132812 9.53882812 11.24265625 10.07765625 11.8828125 10.6328125 C22.76404948 20.34297465 30.04667703 37.32544423 31.22314453 51.73266602 C32.08209688 73.58017468 28.50236408 92.70228002 14 109.8671875 C11.18833216 112.86556766 8.22195406 115.44928637 5 118 C4.91363281 117.20078125 4.82726562 116.4015625 4.73828125 115.578125 C2.97694691 101.81063085 -1.56800121 89.76535188 -12.66796875 80.859375 C-15.68903084 78.7145517 -18.68319941 76.6584003 -22 75 C-20.59032012 71.99765295 -18.91905799 69.38857411 -17 66.6875 C-12.41731689 59.82465262 -11.06071259 53.15634388 -12 45 C-13.77430139 37.3715665 -16.92497454 31.05487967 -23 26 C-31.50727181 20.81547721 -39.03077724 18.88257064 -49 20 C-58.38369746 22.96208281 -65.01550193 28.55726923 -70.15234375 36.86328125 C-73.36843913 43.78455563 -73.10905792 52.70595523 -71.23828125 59.94921875 C-69.33544331 64.98083371 -67.03379274 70.48310363 -62 73 C-62 73.66 -62 74.32 -62 75 C-63.94140625 76.26171875 -63.94140625 76.26171875 -66.5625 77.6875 C-77.76472682 84.26683603 -84.61692391 93.94766265 -87.9074707 106.55102539 C-88.66417473 109.69042344 -89.35354568 112.83598756 -90 116 C-101.19017011 110.74650961 -107.80332423 98.041974 -112 87 C-118.71687404 67.1821023 -117.69572406 46.51842788 -108.75 27.5625 C-105.46675165 21.44499452 -101.6342215 16.15533878 -97 11 C-96.48179687 10.38898437 -95.96359375 9.77796875 -95.4296875 9.1484375 C-71.53408971 -17.14872791 -28.5346666 -19.03421297 0 0 Z " fill="#0182FB" transform="translate(474,12)"/>
<path d="M0 0 C7.88441226 5.46618997 11.99882972 11.99648916 15 21 C16.07293693 31.41276492 13.63571347 39.91068274 7.25 48.1875 C6.18072316 49.47018293 5.10249658 50.7457553 4 52 C4.73605469 52.26941406 5.47210938 52.53882813 6.23046875 52.81640625 C16.66680583 57.27650517 23.7741374 66.81018864 28.4375 76.875 C29.65629325 79.91929855 30.67984689 82.71843066 31 86 C31.17917969 86.72832031 31.35835938 87.45664062 31.54296875 88.20703125 C32.01784542 91.26786996 32.02368107 93.05582323 31 96 C23.53263567 102.93085281 13.61556886 107.00848969 4 110 C3.23042969 110.24492187 2.46085937 110.48984375 1.66796875 110.7421875 C-19.11244346 116.05556785 -39.99601839 110.51087638 -58 100 C-62.7889938 96.88203211 -62.7889938 96.88203211 -63.62890625 93.37109375 C-63.32925171 80.13341364 -58.72437342 69.96947737 -49.53515625 60.4453125 C-45.16724688 56.33356624 -41.85757217 53.63229878 -36 52 C-36 51.34 -36 50.68 -36 50 C-36.5775 49.79375 -37.155 49.5875 -37.75 49.375 C-43.00711004 46.16232164 -44.92068212 40.46988458 -46.44921875 34.765625 C-48.24262703 25.76042597 -47.40050906 18.82784292 -42.89453125 10.765625 C-33.06273089 -3.58677635 -15.44796304 -8.96488347 0 0 Z " fill="#FA4756" transform="translate(92,400)"/>
<path d="M0 0 C8.62352095 5.07941168 14.06204241 11.7886762 16.953125 21.39453125 C18.57916088 29.58910811 17.07054644 36.97994728 13.34765625 44.3828125 C11.19872708 47.55788986 8.87787959 50.50432809 6.34765625 53.3828125 C7.09402344 53.66125 7.84039062 53.9396875 8.609375 54.2265625 C18.90989445 58.57599725 26.00905295 67.68193692 30.28515625 77.7578125 C32.69995589 83.9626197 35.22648511 90.74017712 33.34765625 97.3828125 C30.14318088 100.58728787 26.39148489 102.40453662 22.34765625 104.3828125 C21.31382812 104.929375 20.28 105.4759375 19.21484375 106.0390625 C1.77978226 114.77801224 -18.03166614 116.00920429 -36.65234375 110.3828125 C-43.11504765 108.10185818 -49.17012579 105.55974047 -54.65234375 101.3828125 C-55.76609375 100.7228125 -56.87984375 100.0628125 -58.02734375 99.3828125 C-61.51595433 95.39582898 -61.44764123 92.81456597 -61.16796875 87.640625 C-59.03794643 74.18275671 -50.38915387 63.33816637 -39.65234375 55.3828125 C-36.08984375 53.8828125 -36.08984375 53.8828125 -33.65234375 53.3828125 C-33.65234375 52.7228125 -33.65234375 52.0628125 -33.65234375 51.3828125 C-35.13734375 50.8878125 -35.13734375 50.8878125 -36.65234375 50.3828125 C-38.1875 48.52734375 -38.1875 48.52734375 -39.71484375 46.1953125 C-40.22144531 45.43863281 -40.72804688 44.68195313 -41.25 43.90234375 C-45.52008325 36.23046715 -46.1069608 27.24483212 -44 18.75390625 C-40.05207761 9.01117932 -32.6124266 2.66086147 -23.296875 -1.7265625 C-15.7698861 -4.26150115 -7.12575829 -3.31376727 0 0 Z " fill="#FB4756" transform="translate(445.65234375,33.6171875)"/>
<path d="M0 0 C0.64324219 0.43183594 1.28648437 0.86367188 1.94921875 1.30859375 C2.64402344 1.77136719 3.33882813 2.23414063 4.0546875 2.7109375 C11.05909304 8.08580029 15.16259113 15.29118517 16.52734375 23.99609375 C16.93225437 32.97774739 15.03457533 39.87884114 9.94921875 47.30859375 C8.65430676 48.67927187 7.3312014 50.02575334 5.94921875 51.30859375 C6.65046875 51.78167969 7.35171875 52.25476563 8.07421875 52.7421875 C20.54459427 61.43417479 29.61039198 71.7914152 32.72265625 87.078125 C32.83480469 88.18220703 32.83480469 88.18220703 32.94921875 89.30859375 C33.15417969 91.02949219 33.15417969 91.02949219 33.36328125 92.78515625 C32.94921875 96.30859375 32.94921875 96.30859375 30.44921875 98.75 C29.30147605 99.48735405 28.13288765 100.19291072 26.94921875 100.87109375 C26.32853516 101.2475 25.70785156 101.62390625 25.06835938 102.01171875 C7.0156459 112.53797755 -14.70620142 115.72622339 -35.11328125 110.80859375 C-44.38865007 107.88063065 -54.99136498 103.11916232 -62.05078125 96.30859375 C-64.13668477 89.15692454 -60.96999361 80.80813421 -58.05078125 74.30859375 C-52.28184613 64.29863454 -44.79205963 57.33890894 -35.05078125 51.30859375 C-35.79328125 50.62796875 -36.53578125 49.94734375 -37.30078125 49.24609375 C-43.20933283 43.30406595 -45.99545208 35.95923058 -46.48828125 27.62109375 C-46.27531719 19.39065903 -42.94103516 11.87877595 -37.36328125 5.87109375 C-27.23475118 -3.12995616 -12.52832964 -6.89654718 0 0 Z " fill="#FBB341" transform="translate(451.05078125,399.69140625)"/>
<path d="M0 0 C7.9365149 4.62321257 13.09701597 11.29104791 16 20 C16.99208563 33.41755153 14.70327514 42.61409167 6 53 C6.72316406 53.24492188 7.44632812 53.48984375 8.19140625 53.7421875 C19.09001258 58.62306544 26.91744996 70.01937415 31.05859375 80.84375 C32.61673133 86.06771335 33.53609281 90.67638425 32 96 C23.56465226 106.68595523 7.0177731 111.45967711 -6 113 C-25.14281731 114.3676798 -43.94675843 110.4459849 -59.421875 98.5 C-62 96 -62 96 -62.7265625 93.96484375 C-62.06009112 80.66104973 -56.20055636 68.45907635 -46.375 59.5 C-38.74576271 53 -38.74576271 53 -35 53 C-35.38671875 52.52691406 -35.7734375 52.05382812 -36.171875 51.56640625 C-43.79322499 41.88880094 -46.42743101 33.36855829 -45.31787109 21.01806641 C-44.16806199 13.7182799 -39.62462661 7.63776846 -33.8671875 3.2109375 C-23.19757552 -3.70868533 -11.86005175 -5.37348623 0 0 Z " fill="#FAB341" transform="translate(95,34)"/>
<path d="M0 0 C8.45898141 6.67897229 14.11966153 14.8671879 16.09765625 25.65625 C17.06185184 37.50843884 15.5614762 48.45908317 7.79296875 57.84765625 C-1.12238869 67.35874034 -10.56194933 72.48472349 -23.71484375 72.96875 C-36.51060665 72.63097365 -46.56420976 67.83974551 -55.3359375 58.640625 C-63.05246321 48.86507622 -64.75520995 37.78590256 -63.90234375 25.65625 C-62.20715964 15.39967389 -56.12475209 5.98931819 -47.90234375 -0.34375 C-32.5155726 -9.40803141 -14.97082299 -10.77265569 0 0 Z " fill="#7FD160" transform="translate(279.90234375,13.34375)"/>
<path d="M0 0 C8.34240359 6.20440066 14.10058599 13.54003923 17.39453125 23.421875 C17.67721164 26.93763921 17.67221357 30.45850485 17.70703125 33.984375 C17.75053711 35.41233398 17.75053711 35.41233398 17.79492188 36.86914062 C17.89186365 47.82356149 14.35247672 55.31623976 6.81640625 63.16015625 C-2.92180235 72.25438654 -12.68167404 75.05794792 -25.91015625 74.77734375 C-33.73304248 74.0248251 -40.36437377 71.17699499 -46.60546875 66.421875 C-47.43046875 65.865 -48.25546875 65.308125 -49.10546875 64.734375 C-57.05952992 57.37686841 -61.60543715 47.28025099 -62.078125 36.50219727 C-62.24610449 23.72225779 -58.32129042 14.44706273 -49.5703125 5.29296875 C-36.26686804 -7.44736695 -15.92504609 -9.64575505 0 0 Z " fill="#7FD160" transform="translate(65.60546875,223.578125)"/>
<path d="M0 0 C0.65871094 0.41636719 1.31742187 0.83273437 1.99609375 1.26171875 C2.70636719 1.70902344 3.41664063 2.15632813 4.1484375 2.6171875 C13.43726611 9.06920439 19.83247365 18.08301492 21.99609375 29.26171875 C22.85596629 41.6167295 21.20067362 51.14803408 13.99609375 61.26171875 C13.41859375 62.12796875 12.84109375 62.99421875 12.24609375 63.88671875 C4.81754948 71.72795992 -5.16505759 76.2647101 -15.92407227 76.73388672 C-26.18265164 76.87116551 -34.76553428 74.53857358 -43.00390625 68.26171875 C-43.82890625 67.70484375 -44.65390625 67.14796875 -45.50390625 66.57421875 C-52.95884112 59.678404 -57.47461131 50.21196865 -58.2421875 40.1328125 C-58.54470596 26.13735344 -54.95586797 16.6543916 -45.3828125 6.55078125 C-34.02567952 -4.17993912 -14.16070215 -7.19393959 0 0 Z " fill="#7FD160" transform="translate(274.00390625,433.73828125)"/>
<path d="M0 0 C8.11213175 6.82585293 14.65809668 14.67692334 16.6875 25.3125 C17.53003863 37.70196147 16.48630965 48.07656233 8.6875 58.3125 C8.130625 59.1375 7.57375 59.9625 7 60.8125 C0.22984054 68.13159131 -9.09528384 72.72572138 -18.99609375 73.66015625 C-32.95765184 73.98353574 -42.77254083 70.48570235 -53.0625 61.0625 C-60.62747394 53.18085273 -62.52183352 44.18296939 -62.625 33.6875 C-62.65400391 32.72714844 -62.68300781 31.76679688 -62.71289062 30.77734375 C-62.81037191 19.72446622 -58.31065133 11.42355771 -50.65234375 3.62109375 C-36.89831236 -8.87972293 -15.48630463 -10.87981088 0 0 Z " fill="#7FD160" transform="translate(491.3125,224.6875)"/>
<path d="M0 0 C15.64646692 8.73858839 24.35336934 22.22233641 29.87890625 38.9140625 C31.68960667 45.70418907 31.30742747 52.67619206 31.12890625 59.6484375 C21.00790947 59.27358577 13.9516878 53.77696218 6.72265625 47.06640625 C3.73148076 44.40513982 1.26297401 44.43857808 -2.67333984 44.48828125 C-6.1299026 44.74017029 -9.3732484 45.68548729 -12.68359375 46.6484375 C-22.66148443 49.28744649 -30.49708576 49.11526251 -40.49609375 46.6484375 C-49.0886431 44.37780658 -49.0886431 44.37780658 -57.87109375 44.6484375 C-60.08198392 46.15841924 -61.91230894 47.81415612 -63.81640625 49.6953125 C-70.41642868 55.96909808 -75.95492689 58.79224664 -84.87109375 58.6484375 C-85.12921377 42.38687636 -81.58338598 29.04394665 -71.87109375 15.6484375 C-71.43410156 15.01550781 -70.99710938 14.38257813 -70.546875 13.73046875 C-63.58837372 4.59874184 -52.64188809 -1.14853737 -41.87109375 -4.3515625 C-40.93910156 -4.70476562 -40.00710937 -5.05796875 -39.046875 -5.421875 C-25.92823376 -9.26226444 -11.99648024 -5.64732267 0 0 Z " fill="#6D80AA" transform="translate(282.87109375,171.3515625)"/>
<path d="M0 0 C11.90202457 6.12269197 22.12487232 14.67396111 28.75390625 26.44921875 C27.68140625 26.11921875 26.60890625 25.78921875 25.50390625 25.44921875 C16.1560248 23.17005331 7.16409931 23.58233654 -1.24609375 28.44921875 C-8.41052671 33.31325071 -12.9255051 39.05249942 -15.24609375 47.44921875 C-16.47610301 56.68025912 -15.0019838 65.77015691 -9.68359375 73.51171875 C-7.57713269 76.45150704 -7.57713269 76.45150704 -5.24609375 77.44921875 C-5.24609375 78.10921875 -5.24609375 78.76921875 -5.24609375 79.44921875 C-7.1875 80.7109375 -7.1875 80.7109375 -9.80859375 82.13671875 C-20.16528637 88.2194523 -26.29215125 96.79582226 -30.62109375 108.01171875 C-31.49188001 112.8010432 -31.91257401 117.59562892 -32.24609375 122.44921875 C-44.93197213 114.89167419 -53.19865337 99.34748105 -57.12109375 85.44921875 C-61.94400233 65.91338654 -59.3962872 46.26219535 -49.68359375 28.609375 C-39.83595305 12.35620876 -20.14958483 -9.62621562 0 0 Z " fill="#22A6FD" transform="translate(61.24609375,372.55078125)"/>
<path d="M0 0 C1.01191406 0.46535156 2.02382813 0.93070312 3.06640625 1.41015625 C15.55310422 7.3116906 29.10018356 15.93821734 35 29 C33.948125 28.67 32.89625 28.34 31.8125 28 C22.02818536 25.65314499 13.57764729 26.12623995 4.734375 31.09765625 C-1.15227608 35.1930835 -6.45959744 40.64343672 -8.59765625 47.64453125 C-10.46173617 58.55754283 -9.19972754 67.94745148 -2.875 77.0625 C-1.14275852 79.06684381 -1.14275852 79.06684381 1 80 C1 80.66 1 81.32 1 82 C-0.94140625 83.26171875 -0.94140625 83.26171875 -3.5625 84.6875 C-14.76472682 91.26683603 -21.61692391 100.94766265 -24.9074707 113.55102539 C-25.66417473 116.69042344 -26.35354568 119.83598756 -27 123 C-38.19017011 117.74650961 -44.80332423 105.041974 -49 94 C-55.71687404 74.1821023 -54.69572406 53.51842788 -45.75 34.5625 C-42.46675165 28.44499452 -38.6342215 23.15533878 -34 18 C-33.48179687 17.38898437 -32.96359375 16.77796875 -32.4296875 16.1484375 C-26.46962522 9.58937398 -8.92244173 -5.24092974 0 0 Z " fill="#22A6FD" transform="translate(411,5)"/>
<path d="M0 0 C0.68835938 0.20496094 1.37671875 0.40992188 2.0859375 0.62109375 C16.14698044 5.6360391 28.69753295 16.04401006 36 29 C34.75476563 28.76410156 34.75476563 28.76410156 33.484375 28.5234375 C22.96464682 26.94311959 12.92169854 26.52350773 4 33 C-3.14682151 38.2897734 -6.95769847 45.89247875 -8.4453125 54.609375 C-8.85841125 63.25690891 -5.7811197 71.59947462 0 78 C0 78.66 0 79.32 0 80 C0.99 80.33 1.98 80.66 3 81 C0.97021926 82.52577198 -1.06242682 84.04557966 -3.11328125 85.54296875 C-13.74032176 93.48965446 -21.11763255 102.7891492 -24 116 C-24.41402888 118.99448794 -24.74049439 121.98836913 -25 125 C-40.35490942 112.46538007 -48.57394229 97.06589327 -51.52734375 77.5078125 C-52.96132315 63.29691555 -50.72452836 50.04696031 -45 37 C-44.57589844 36.02933594 -44.15179688 35.05867188 -43.71484375 34.05859375 C-40.13060459 27.03348499 -35.18799793 21.71245521 -29.6875 16.125 C-28.98850586 15.41110107 -28.28951172 14.69720215 -27.56933594 13.96166992 C-21.3415355 7.85506919 -9.35485752 -2.95416553 0 0 Z " fill="#22A6FD" transform="translate(414,370)"/>
<path d="M0 0 C8.34824062 5.51172086 16.19146711 12.84931675 22 21 C21.67 21.66 21.34 22.32 21 23 C19.906875 22.67 18.81375 22.34 17.6875 22 C8.70217495 19.8092317 1.01700596 20.29885128 -7 25 C-7.70125 25.40089844 -8.4025 25.80179688 -9.125 26.21484375 C-15.11796697 30.13070285 -18.81191758 35.18819598 -21 42 C-22.37356061 50.84256387 -22.16495706 60.40932828 -17 68 C-15.40469205 70.07887155 -13.7306643 72.02896565 -12 74 C-12 74.66 -12 75.32 -12 76 C-13.7578125 77.33203125 -13.7578125 77.33203125 -16.125 78.8125 C-16.95128906 79.35390625 -17.77757812 79.8953125 -18.62890625 80.453125 C-19.41136719 80.96359375 -20.19382813 81.4740625 -21 82 C-29.47297367 87.70628839 -35.04553354 97.85192602 -37.546875 107.6328125 C-38.27116835 111.41662086 -38.69029694 115.15968203 -39 119 C-52.86405086 108.02429307 -62.77239657 91.72058528 -65 74 C-66.60664699 52.18522004 -63.29464803 32.15138874 -48.83203125 15.01171875 C-48.22746094 14.34785156 -47.62289062 13.68398438 -47 13 C-46.32324219 12.24332031 -45.64648438 11.48664062 -44.94921875 10.70703125 C-30.87588321 -4.21620377 -18.27818399 -10.4514325 0 0 Z " fill="#22A6FD" transform="translate(72,11)"/>
<path d="M0 0 C4.33939333 0.6207027 6.62534103 1.05592807 9.75 4.1875 C16.48022576 10.42965595 23.10239371 13.99238333 32 16 C33.03868754 44.54313348 33.03868754 44.54313348 27 55 C26.48050781 55.94359375 25.96101563 56.8871875 25.42578125 57.859375 C19.71516219 67.49687664 9.89454195 81.22708488 -1.29296875 84.71484375 C-1.85628906 84.80894531 -2.41960937 84.90304687 -3 85 C-2.0960603 86.94347036 -1.176325 88.87959907 -0.25 90.8125 C0.26046875 91.89144531 0.7709375 92.97039062 1.296875 94.08203125 C3.67690329 98.15974027 5.53447675 99.53870188 10.015625 100.94921875 C11.08296875 101.19285156 12.1503125 101.43648438 13.25 101.6875 C14.32765625 101.93886719 15.4053125 102.19023437 16.515625 102.44921875 C17.33546875 102.63097656 18.1553125 102.81273437 19 103 C15.64287487 105.80464347 12.29328532 108.09578953 8.46484375 110.20703125 C7.40716797 110.79419922 6.34949219 111.38136719 5.25976562 111.98632812 C4.16341797 112.58896484 3.06707031 113.19160156 1.9375 113.8125 C-0.2206618 115.005408 -2.37821558 116.19941669 -4.53515625 117.39453125 C-5.60266113 117.98186035 -6.67016602 118.56918945 -7.77001953 119.17431641 C-9.96077992 120.41260107 -12.12833388 121.69268893 -14.27294922 123.00927734 C-15.83746826 123.96954834 -15.83746826 123.96954834 -17.43359375 124.94921875 C-18.36099365 125.53405029 -19.28839355 126.11888184 -20.24389648 126.72143555 C-23.48815342 128.2264558 -25.45906344 128.4136145 -29 128 C-31.52270508 126.96533203 -31.52270508 126.96533203 -34.01953125 125.5078125 C-34.95192627 124.97196533 -35.88432129 124.43611816 -36.8449707 123.8840332 C-37.82425537 123.30355225 -38.80354004 122.72307129 -39.8125 122.125 C-40.8233667 121.53871826 -41.8342334 120.95243652 -42.87573242 120.34838867 C-44.93487137 119.15165333 -46.99064278 117.94910454 -49.04296875 116.74072266 C-51.76084588 115.14078343 -54.48743731 113.55732544 -57.21875 111.98046875 C-58.75048041 111.09197352 -60.28176123 110.20270258 -61.8125 109.3125 C-62.51673096 108.90338379 -63.22096191 108.49426758 -63.9465332 108.07275391 C-66.55347972 106.5377953 -68.85132378 105.14867622 -71 103 C-70.19175781 102.82984375 -69.38351563 102.6596875 -68.55078125 102.484375 C-60.40052779 100.87310376 -60.40052779 100.87310376 -54 96 C-52.16133906 92.738688 -50.5316452 89.41524291 -49 86 C-48.0925 86.28875 -47.185 86.5775 -46.25 86.875 C-39.2924394 87.84484178 -32.80309707 82.9164031 -27.3203125 79.16796875 C-14.39749442 69.28462969 -4.0474714 55.96958893 0 40 C0.35945632 36.77800661 0.35349653 33.60977271 0.29296875 30.37109375 C0.28872391 29.49598648 0.28447906 28.62087921 0.28010559 27.71925354 C0.26347981 24.95833928 0.22585966 22.19818895 0.1875 19.4375 C0.17243228 17.55144293 0.15874756 15.66537427 0.14648438 13.77929688 C0.11362937 9.18590917 0.06196135 4.59308353 0 0 Z " fill="#FDD1A3" transform="translate(282,215)"/>
<path d="M0 0 C8.62352095 5.07941168 14.06204241 11.7886762 16.953125 21.39453125 C18.57705717 29.57850626 17.0955733 36.99753642 13.34765625 44.3828125 C8.17775882 52.07876108 1.22280336 56.87222498 -7.65234375 59.3828125 C-15.92409566 60.27537293 -22.41313777 59.45579492 -29.65234375 55.3828125 C-30.98335424 54.71152025 -32.31604754 54.0435202 -33.65234375 53.3828125 C-33.65234375 52.7228125 -33.65234375 52.0628125 -33.65234375 51.3828125 C-34.64234375 51.0528125 -35.63234375 50.7228125 -36.65234375 50.3828125 C-38.1875 48.52734375 -38.1875 48.52734375 -39.71484375 46.1953125 C-40.22144531 45.43863281 -40.72804688 44.68195313 -41.25 43.90234375 C-45.52008325 36.23046715 -46.1069608 27.24483212 -44 18.75390625 C-40.05207761 9.01117932 -32.6124266 2.66086147 -23.296875 -1.7265625 C-15.7698861 -4.26150115 -7.12575829 -3.31376727 0 0 Z " fill="#FEE4C1" transform="translate(445.65234375,33.6171875)"/>
<path d="M0 0 C7.88441226 5.46618997 11.99882972 11.99648916 15 21 C15.9129039 29.85965754 14.47632005 37.83392438 9.45703125 45.29296875 C3.93142859 52.03243378 -3.5562157 57.3393774 -12.34765625 58.40625 C-21.7340522 58.64313065 -28.03856199 56.98145842 -36 52 C-36 51.34 -36 50.68 -36 50 C-36.5775 49.79375 -37.155 49.5875 -37.75 49.375 C-43.00711004 46.16232164 -44.92068212 40.46988458 -46.44921875 34.765625 C-48.24262703 25.76042597 -47.40050906 18.82784292 -42.89453125 10.765625 C-33.06273089 -3.58677635 -15.44796304 -8.96488347 0 0 Z " fill="#FEE4C0" transform="translate(92,400)"/>
<path d="M0 0 C7.9365149 4.62321257 13.09701597 11.29104791 16 20 C16.90706558 32.26769028 15.342601 41.68892911 7.4921875 51.453125 C5.47640048 53.54278903 3.7921302 54.22080087 1 55 C0.39929688 55.32742187 -0.20140625 55.65484375 -0.8203125 55.9921875 C-8.72285211 60.2204836 -17.03798788 60.48427 -25.578125 57.9296875 C-32.68582504 54.960032 -37.30722811 51.78058456 -41 45 C-41.40863281 44.36835937 -41.81726562 43.73671875 -42.23828125 43.0859375 C-46.26093355 35.92533993 -46.25469145 26.96565245 -45 19 C-41.97216434 9.87369676 -36.13503354 4.01823161 -27.75 -0.3125 C-18.80519837 -4.55233597 -8.98651843 -4.07156175 0 0 Z " fill="#FEE4C0" transform="translate(95,34)"/>
<path d="M0 0 C0.64324219 0.43183594 1.28648437 0.86367188 1.94921875 1.30859375 C2.64402344 1.77136719 3.33882813 2.23414063 4.0546875 2.7109375 C11.05909304 8.08580029 15.16259113 15.29118517 16.52734375 23.99609375 C16.97694718 33.96911534 14.65647263 41.86120561 8.0859375 49.46484375 C1.38161562 55.80640673 -7.41137533 59.72858488 -16.70703125 59.58984375 C-25.02731539 58.59140965 -33.34302252 54.80523731 -38.703125 48.3046875 C-44.29530755 40.44281717 -47.52744038 32.03466588 -46.05078125 22.30859375 C-43.14484871 11.9091222 -37.76450453 4.86779821 -28.55078125 -0.69140625 C-20.12230535 -4.5343744 -8.1778281 -4.50169966 0 0 Z " fill="#FDE4C1" transform="translate(451.05078125,399.69140625)"/>
<path d="M0 0 C9.18257404 6.45116258 16.54881113 15.52700149 18.68359375 26.71484375 C19.52613238 39.10430522 18.4824034 49.47890608 10.68359375 59.71484375 C10.12671875 60.53984375 9.56984375 61.36484375 8.99609375 62.21484375 C2.20219232 69.55960205 -7.18612899 74.21390179 -17.140625 75.02734375 C-23.3369072 75.12444514 -28.48338745 74.94800562 -34.31640625 72.71484375 C-32.1469204 70.5453579 -30.33548135 69.69038323 -27.56640625 68.40234375 C-17.67720622 63.5003696 -11.62999287 56.24933919 -7.91625977 45.91625977 C-6.86831329 42.07037723 -6.82816635 38.30554662 -6.87890625 34.33984375 C-6.88720459 33.50275879 -6.89550293 32.66567383 -6.90405273 31.80322266 C-7.19332396 21.21857246 -10.87992269 13.30596119 -18.31640625 5.71484375 C-22.69288895 2.18128915 -27.23389048 -0.86657978 -32.31640625 -3.28515625 C-32.31640625 -3.61515625 -32.31640625 -3.94515625 -32.31640625 -4.28515625 C-21.19235051 -6.76388606 -10.05266275 -5.57727832 0 0 Z " fill="#50C124" transform="translate(489.31640625,223.28515625)"/>
<path d="M0 0 C12.72405187 5.73660644 19.51314869 14.65049021 24.6171875 27.2890625 C26.67686313 38.52365686 25.77610562 49.32652769 19.984375 59.31640625 C13.27202231 68.87142196 4.16602965 75.50856281 -7.33984375 77.7265625 C-14.50888445 78.67767901 -20.78533039 78.08646461 -27.6953125 76.0390625 C-25.24191653 73.99456585 -22.84068548 72.63396195 -19.9453125 71.3515625 C-10.60351008 66.73275312 -4.43108011 57.89817673 -1.05078125 48.1875 C1.01236322 35.71794549 -0.53767696 23.52031982 -7.96484375 13.140625 C-12.9693925 7.06286602 -18.5512967 3.22835527 -25.6953125 0.0390625 C-18.55654784 -4.37431171 -7.59057603 -2.66292339 0 0 Z " fill="#50C124" transform="translate(270.6953125,7.9609375)"/>
<path d="M0 0 C4.71933962 1.87146226 4.71933962 1.87146226 6.859375 2.8515625 C19.89189299 8.18304713 33.52217215 5.08557758 46 0 C46.38671875 0.75925781 46.7734375 1.51851563 47.171875 2.30078125 C47.95304687 3.79158203 47.95304687 3.79158203 48.75 5.3125 C49.26046875 6.29863281 49.7709375 7.28476562 50.296875 8.30078125 C53.42216373 13.25393381 56.64489035 14.4080728 62.25 15.6875 C63.32765625 15.93886719 64.4053125 16.19023437 65.515625 16.44921875 C66.33546875 16.63097656 67.1553125 16.81273437 68 17 C64.64287487 19.80464347 61.29328532 22.09578953 57.46484375 24.20703125 C55.87833008 25.0877832 55.87833008 25.0877832 54.25976562 25.98632812 C53.16341797 26.58896484 52.06707031 27.19160156 50.9375 27.8125 C48.7793382 29.005408 46.62178442 30.19941669 44.46484375 31.39453125 C42.86358643 32.2755249 42.86358643 32.2755249 41.22998047 33.17431641 C39.03922008 34.41260107 36.87166612 35.69268893 34.72705078 37.00927734 C33.16253174 37.96954834 33.16253174 37.96954834 31.56640625 38.94921875 C30.63900635 39.53405029 29.71160645 40.11888184 28.75610352 40.72143555 C25.51184658 42.2264558 23.54093656 42.4136145 20 42 C17.47729492 40.96533203 17.47729492 40.96533203 14.98046875 39.5078125 C14.04807373 38.97196533 13.11567871 38.43611816 12.1550293 37.8840332 C11.17574463 37.30355225 10.19645996 36.72307129 9.1875 36.125 C8.1766333 35.53871826 7.1657666 34.95243652 6.12426758 34.34838867 C4.06512863 33.15165333 2.00935722 31.94910454 -0.04296875 30.74072266 C-2.76084588 29.14078343 -5.48743731 27.55732544 -8.21875 25.98046875 C-9.75048041 25.09197352 -11.28176123 24.20270258 -12.8125 23.3125 C-13.51673096 22.90338379 -14.22096191 22.49426758 -14.9465332 22.07275391 C-17.55347972 20.5377953 -19.85132378 19.14867622 -22 17 C-21.19175781 16.82984375 -20.38351563 16.6596875 -19.55078125 16.484375 C-11.40052779 14.87310376 -11.40052779 14.87310376 -5 10 C-3.16133906 6.738688 -1.5316452 3.41524291 0 0 Z " fill="#FEBC85" transform="translate(233,301)"/>
<path d="M0 0 C10.31338677 4.54805642 17.67210603 13.09108986 22.01171875 23.328125 C23.50374842 27.80421401 23.27790628 32.20071514 23.32421875 36.890625 C23.35322266 37.84259766 23.38222656 38.79457031 23.41210938 39.77539062 C23.50905115 50.72981149 19.96966422 58.22248976 12.43359375 66.06640625 C2.48804927 75.3542615 -7.24143276 77.67034318 -20.5703125 77.62890625 C-23.80580041 77.34418331 -26.07819388 76.71942391 -28.98828125 75.328125 C-26.82735464 73.16719839 -25.139155 72.4320722 -22.36328125 71.203125 C-12.24801054 66.21117322 -6.39816208 58.09874256 -2.67578125 47.640625 C-0.46980995 37.01378248 -1.14667951 25.90213362 -6.65234375 16.48046875 C-10.91980748 10.16428239 -15.36328972 6.03106703 -21.98828125 2.328125 C-22.99890625 1.709375 -24.00953125 1.090625 -25.05078125 0.453125 C-25.69015625 0.081875 -26.32953125 -0.289375 -26.98828125 -0.671875 C-19.04522137 -5.43390131 -8.23209795 -2.82016383 0 0 Z " fill="#50C123" transform="translate(59.98828125,220.671875)"/>
<path d="M0 0 C23.34652236 -0.83771678 23.34652236 -0.83771678 31 4 C31.71027344 4.44730469 32.42054688 4.89460938 33.15234375 5.35546875 C42.44117236 11.80748564 48.8363799 20.82129617 51 32 C51.85987254 44.35501075 50.20457987 53.88631533 43 64 C42.4225 64.86625 41.845 65.7325 41.25 66.625 C34.39845204 73.85718951 24.9087336 78.75784269 14.91796875 79.3125 C3.38310355 79.59802295 3.38310355 79.59802295 -2 77 C0.41112189 75.39258541 2.76104385 74.04034463 5.3125 72.6875 C15.19475888 67.15471429 20.58065565 59.71237298 24.40014648 49.15698242 C25.42662323 45.46592747 25.48868167 41.87390981 25.4375 38.0625 C25.42992676 37.26980713 25.42235352 36.47711426 25.41455078 35.66040039 C25.24514892 29.65528974 24.29788672 25.10045834 21 20 C20.56429688 19.23429687 20.12859375 18.46859375 19.6796875 17.6796875 C14.83360992 9.65585412 8.08810966 5.3810594 0 1 C0 0.67 0 0.34 0 0 Z " fill="#50C123" transform="translate(245,431)"/>
<path d="M0 0 C16.68243052 0.01067448 30.93710491 6.60307796 43.0546875 17.9609375 C55.85653336 31.62486052 59.83879129 48.32387349 59.375 66.4375 C49.41832344 66.0687342 42.3704578 60.79817288 35.359375 54.05078125 C33.34990421 52.24703596 33.34990421 52.24703596 30.32421875 51.26171875 C26.06981778 48.63018861 25.67139725 45.60640338 24.4375 40.9375 C20.64759813 28.19692477 14.19145407 17.21314849 2.9375 9.75 C2.11668945 9.18442383 2.11668945 9.18442383 1.27929688 8.60742188 C-2.22266731 6.23271717 -5.8058291 4.25203821 -9.625 2.4375 C-6.75503573 -0.43246427 -3.85041219 0.0110242 0 0 Z " fill="#4B689B" transform="translate(254.625,164.5625)"/>
<path d="M0 0 C0.98871094 0.31710937 1.97742188 0.63421875 2.99609375 0.9609375 C14.18097832 4.81422721 22.49555468 10.30803197 28 21 C31.89274758 29.85147983 33.76975261 40.51808854 31 50 C27.59634582 54.7326633 22.22305417 56.81906731 17 59 C15.91976562 59.56460938 14.83953125 60.12921875 13.7265625 60.7109375 C11 62 11 62 8 62 C7.97421875 60.80246094 7.9484375 59.60492188 7.921875 58.37109375 C7.50621843 44.90048446 6.99346421 29.22936143 -3 19 C-9.03298501 14.27172628 -15.60896765 11.79271848 -23 10 C-17.19293806 3.7494393 -8.73106974 -3.06353324 0 0 Z " fill="#E41F2C" transform="translate(306,320)"/>
<path d="M0 0 C2.27734375 0.57421875 2.27734375 0.57421875 4.9375 1.6875 C16.75940096 6.27626419 27.44596769 8.20984968 40.0625 6.25 C44 6 44 6 46.0625 7.8125 C47 10 47 10 47 12 C47.5775 12.28875 48.155 12.5775 48.75 12.875 C50.83333333 13.91666667 52.91666667 14.95833333 55 16 C51.36721655 20.2022468 46.91446304 22.58832748 42.125 25.25 C41.33480469 25.70890625 40.54460937 26.1678125 39.73046875 26.640625 C38.95574219 27.07375 38.18101562 27.506875 37.3828125 27.953125 C36.33697998 28.54335449 36.33697998 28.54335449 35.27001953 29.14550781 C31.41890561 30.59516351 28.27753848 30.52397252 24.47729492 28.96533203 C23.65334229 28.48435059 22.82938965 28.00336914 21.98046875 27.5078125 C20.58187622 26.70404175 20.58187622 26.70404175 19.1550293 25.8840332 C18.17574463 25.30355225 17.19645996 24.72307129 16.1875 24.125 C15.1766333 23.53871826 14.1657666 22.95243652 13.12426758 22.34838867 C11.06512863 21.15165333 9.00935722 19.94910454 6.95703125 18.74072266 C4.23915412 17.14078343 1.51256269 15.55732544 -1.21875 13.98046875 C-2.75048041 13.09197352 -4.28176123 12.20270258 -5.8125 11.3125 C-6.51673096 10.90338379 -7.22096191 10.49426758 -7.9465332 10.07275391 C-10.55347972 8.5377953 -12.85132378 7.14867622 -15 5 C-14.16855469 4.80664062 -13.33710938 4.61328125 -12.48046875 4.4140625 C-11.39378906 4.15367187 -10.30710938 3.89328125 -9.1875 3.625 C-8.10855469 3.36976563 -7.02960938 3.11453125 -5.91796875 2.8515625 C-2.84466657 2.11267119 -2.84466657 2.11267119 0 0 Z " fill="#FDCFA2" transform="translate(226,313)"/>
<path d="M0 0 C11.11871707 -0.62738842 19.04386131 0.4887438 27.8125 7.625 C34.28016872 13.73780548 38.03382052 21.65942397 38.3125 30.5625 C38.18207461 39.41838425 35.03346437 46.89891732 28.92578125 53.28125 C22.17718894 59.30433441 15.25381198 62.31130229 6.125 62.125 C4.97257812 62.10695312 3.82015625 62.08890625 2.6328125 62.0703125 C1.32957031 62.03550781 1.32957031 62.03550781 0 62 C0 61.34 0 60.68 0 60 C1.6029053 59.18501438 3.20737278 58.37310073 4.8125 57.5625 C6.15248047 56.88380859 6.15248047 56.88380859 7.51953125 56.19140625 C10 55 10 55 13 54 C14.02651373 52.28480253 14.02651373 52.28480253 15 50 C15.66 48.88625 16.32 47.7725 17 46.625 C21.19089571 39.21274415 22.25939849 31.88332139 20.46484375 23.5 C18.01981297 15.59039223 13.76284425 9.75644025 7 5 C4.69232175 3.80126441 2.44876313 2.89954564 0 2 C0 1.34 0 0.68 0 0 Z " fill="#FAD0A4" transform="translate(425,31)"/>
<path d="M0 0 C10.70160828 -0.66195515 18.39110003 0.76003038 26.8125 7.625 C32.17791544 12.68653351 36.46875181 19.84427982 37.23828125 27.3125 C37.49036026 36.44041363 35.6233536 44.21139023 29.75 51.375 C24.26010531 57.12407427 17.30162382 61.77711794 9.23046875 62.1953125 C7.88267285 62.18216327 6.53494305 62.1585249 5.1875 62.125 C4.14819336 62.11146484 4.14819336 62.11146484 3.08789062 62.09765625 C1.39177605 62.07426157 -0.30415871 62.03839641 -2 62 C-0.03284195 60.03284195 1.32968098 59.27383787 3.8125 58.125 C11.6365057 54.23414311 16.79765247 48.51360966 19.64453125 40.09375 C21.43649205 29.53890395 20.16914785 20.82803748 14 12 C9.69283885 7.10984936 5.10798251 4.16324381 -1 2 C-0.67 1.34 -0.34 0.68 0 0 Z " fill="#FAD0A4" transform="translate(70,396)"/>
<path d="M0 0 C10.05028678 0.14301831 17.96724294 2.95163443 25.0625 10.25 C31.66543828 19.39146287 32.85698704 27.17194128 32.0625 38.25 C30.47126762 45.06956735 26.9229463 51.21142216 22.0625 56.25 C19.75 57.5 19.75 57.5 17.0625 58.25 C16.16144531 58.74113281 16.16144531 58.74113281 15.2421875 59.2421875 C8.31993116 62.94597779 1.76792229 62.64458777 -5.9375 62.25 C-4.57468145 59.5243629 -3.08663458 59.32349319 -0.3125 58.125 C6.53945245 54.78234509 11.15336593 50.15349281 13.9375 43 C16.63171136 34.01929548 17.31496554 26.42893691 13.390625 17.640625 C9.65249 10.911982 4.91089086 6.60958797 -1.9375 3.25 C-2.741875 2.8375 -3.54625 2.425 -4.375 2 C-4.890625 1.7525 -5.40625 1.505 -5.9375 1.25 C-4.26752559 -0.41997441 -2.29187312 0.0385729 0 0 Z " fill="#FBD0A4" transform="translate(78.9375,30.75)"/>
<path d="M0 0 C11.03905768 -0.56530025 18.3740217 0.21146398 27.1875 7 C34.04259646 13.48417941 37.32690297 21.11493867 37.75 30.5 C37.32690297 39.88506133 34.04259646 47.51582059 27.1875 54 C21.13005803 58.76689291 13.78534019 62.11147129 6 62.1875 C5.34 62.20167969 4.68 62.21585937 4 62.23046875 C1.65575596 61.96033125 0.04184597 61.15309605 -2 60 C-1.05640625 59.70609375 -1.05640625 59.70609375 -0.09375 59.40625 C7.67977539 56.69019896 13.51871 52.85469783 17.34765625 45.36328125 C18.3390389 42.9292414 19.21204698 40.50631383 20 38 C20.33 37.01 20.66 36.02 21 35 C22.17544131 26.15060614 19.70445497 18.03732338 14.42578125 10.859375 C10.30644979 6.44237623 5.38197859 3.64827518 0 1 C0 0.67 0 0.34 0 0 Z " fill="#FCD0A3" transform="translate(430,397)"/>
<path d="M0 0 C11.62441948 7.3741747 20.08614424 18.33509109 23.375 31.8125 C23.7734375 33.76953125 23.7734375 33.76953125 24 36 C24.15339844 37.13953125 24.30679688 38.2790625 24.46484375 39.453125 C24 43 24 43 21.04296875 45.65234375 C19.77351835 46.43995896 18.48734821 47.20113279 17.1875 47.9375 C16.54490234 48.33517578 15.90230469 48.73285156 15.24023438 49.14257812 C12.32038385 50.90053994 10.46076736 52 7 52 C6.91363281 51.22398437 6.82726562 50.44796875 6.73828125 49.6484375 C4.49693418 32.4167967 -1.79596314 16.66070788 -15 5 C-5.71069368 -1.97677858 -5.71069368 -1.97677858 0 0 Z " fill="#FA9905" transform="translate(460,453)"/>
<path d="M0 0 C1.9375 1.2578125 1.9375 1.2578125 3.9375 2.8125 C4.68 3.36679687 5.4225 3.92109375 6.1875 4.4921875 C14.81363949 11.51549702 22.61976283 22.47996036 23.9375 33.8125 C24.09476563 34.555 24.25203125 35.2975 24.4140625 36.0625 C24.80384945 39.03575863 24.84246591 40.93662276 23.9375 43.8125 C19.79909713 47.82804403 14.93270848 51.5942257 9.04296875 52.0234375 C8.34816406 51.95382812 7.65335938 51.88421875 6.9375 51.8125 C6.81375 50.69875 6.69 49.585 6.5625 48.4375 C4.55065214 32.78135173 -1.11296037 18.76203963 -12.4375 7.4375 C-12.97375 6.90125 -13.51 6.365 -14.0625 5.8125 C-14.0625 5.1525 -14.0625 4.4925 -14.0625 3.8125 C-4.7337843 -2.22822574 -4.7337843 -2.22822574 0 0 Z " fill="#E2202E" transform="translate(99.0625,452.1875)"/>
<path d="M0 0 C10.04222596 2.31743676 17.57777318 10.64811685 23 19 C26.7504005 26.54733202 31.50021442 36.42031684 29 45 C24.10644666 49.74009696 18.72575807 52.19171157 12 53 C11.84144531 51.91203125 11.68289063 50.8240625 11.51953125 49.703125 C8.9441634 33.06959138 3.42349717 18.81747292 -9 7 C-9 6.34 -9 5.68 -9 5 C-8.43410156 4.72285156 -7.86820312 4.44570312 -7.28515625 4.16015625 C-6.55167969 3.79792969 -5.81820313 3.43570313 -5.0625 3.0625 C-3.96615234 2.52302734 -3.96615234 2.52302734 -2.84765625 1.97265625 C-1.03750973 1.13628173 -1.03750973 1.13628173 0 0 Z " fill="#E2202E" transform="translate(450,86)"/>
<path d="M0 0 C10.84564118 3.53662213 19.19066261 12.89664673 24.47265625 22.74609375 C27.62397431 29.49641016 30.17572075 36.59838538 28 44 C23.59659782 49.40071784 18.92653364 52.23828442 12 53 C11.76216797 51.47632813 11.76216797 51.47632813 11.51953125 49.921875 C8.94299265 34.35631611 3.49924504 19.32606364 -8 8 C-8.66 7.67 -9.32 7.34 -10 7 C-10 6.34 -10 5.68 -10 5 C-9.36191406 4.72285156 -8.72382812 4.44570312 -8.06640625 4.16015625 C-7.24011719 3.79792969 -6.41382812 3.43570313 -5.5625 3.0625 C-4.73878906 2.70285156 -3.91507812 2.34320313 -3.06640625 1.97265625 C-1.05589883 1.16877677 -1.05589883 1.16877677 0 0 Z " fill="#FC9903" transform="translate(99,86)"/>
<path d="M0 0 C7.11905227 5.80683219 13.47374812 12.36285444 19.9375 18.875 C21.10979204 20.05231638 22.28231614 21.22940174 23.45507812 22.40625 C26.30606982 25.26817489 29.15389615 28.13321457 32 31 C30.30413874 34.63303084 28.26199512 36.94549046 25.375 39.75 C24.55773437 40.54921875 23.74046875 41.3484375 22.8984375 42.171875 C22.27195312 42.77515625 21.64546875 43.3784375 21 44 C14.72956116 38.85249075 9.00307042 33.18923173 3.27294922 27.45825195 C1.61312916 25.80064499 -0.05456861 24.15123509 -1.72265625 22.50195312 C-2.78173779 21.44580142 -3.84034896 20.38917778 -4.8984375 19.33203125 C-5.64521255 18.59603447 -5.64521255 18.59603447 -6.40707397 17.84516907 C-8.67832287 15.55865728 -9.96430802 14.10707595 -11 11 C-7.37 7.37 -3.74 3.74 0 0 Z " fill="#CDBEB9" transform="translate(358,349)"/>
<path d="M0 0 C0.33 0 0.66 0 1 0 C1.061875 1.051875 1.12375 2.10375 1.1875 3.1875 C1.78624438 7.69322955 1.78624438 7.69322955 7 12 C-3.56 22.56 -14.12 33.12 -25 44 C-29.73083325 39.94500008 -33.26704243 36.75103691 -37 32 C-36.55197021 31.55720703 -36.10394043 31.11441406 -35.64233398 30.65820312 C-33.57129904 28.60823317 -31.50439303 26.55414567 -29.4375 24.5 C-28.38079102 23.45585937 -28.38079102 23.45585937 -27.30273438 22.390625 C-23.19919641 18.30599734 -19.28961749 14.1233609 -15.51147461 9.73632812 C-13.77334662 7.73962869 -11.9533505 5.85226172 -10.0625 4 C-9.47597656 3.4225 -8.88945312 2.845 -8.28515625 2.25 C-7.86105469 1.8375 -7.43695313 1.425 -7 1 C-4.50638429 2.20381448 -2.31856917 3.45428722 0 5 C0 3.35 0 1.7 0 0 Z " fill="#CCBDB9" transform="translate(384,123)"/>
<path d="M0 0 C0.33 0 0.66 0 1 0 C1.33 1.65 1.66 3.3 2 5 C3.65 3.68 5.3 2.36 7 1 C17.23 11.23 27.46 21.46 38 32 C32 39 32 39 26 44 C15.44 33.44 4.88 22.88 -6 12 C-4.35 10.35 -2.7 8.7 -1 7 C-0.11472891 3.31558496 -0.11472891 3.31558496 0 0 Z " fill="#CCBDB8" transform="translate(127,123)"/>
<path d="M0 0 C1.06816445 0.86807601 2.12918085 1.74494783 3.1875 2.625 C3.77917969 3.11226563 4.37085938 3.59953125 4.98046875 4.1015625 C7.54686166 6.51407112 9.74508093 9.29409712 12 12 C1.77 22.23 -8.46 32.46 -19 43 C-22.27666077 41.90777974 -22.91609231 41.17281146 -25 38.5625 C-26.96428932 36.11225368 -28.32070868 34.78619422 -31 33 C-29.70280076 30.14220983 -28.3363174 28.08991464 -26.11083984 25.88378906 C-25.5303891 25.30348938 -24.94993835 24.7231897 -24.35189819 24.12530518 C-23.72788116 23.51161072 -23.10386414 22.89791626 -22.4609375 22.265625 C-21.82008209 21.62759949 -21.17922668 20.98957397 -20.51895142 20.33221436 C-18.47562179 18.30005931 -16.42544018 16.27497782 -14.375 14.25 C-12.9865214 12.8715547 -11.5984951 11.49265364 -10.2109375 10.11328125 C-6.81251303 6.73688106 -3.40792746 3.36680712 0 0 Z " fill="#CCBEB9" transform="translate(153,349)"/>
<path d="M0 0 C5.28 0 10.56 0 16 0 C16 11.88 16 23.76 16 36 C10.72 36 5.44 36 0 36 C0 24.12 0 12.24 0 0 Z " fill="#CCBDB8" transform="translate(248,395)"/>
<path d="M0 0 C11.88 0 23.76 0 36 0 C36 5.28 36 10.56 36 16 C24.12 16 12.24 16 0 16 C0 10.72 0 5.44 0 0 Z " fill="#CCBEB8" transform="translate(393,250)"/>
<path d="M0 0 C11.88 0 23.76 0 36 0 C36 5.28 36 10.56 36 16 C24.12 16 12.24 16 0 16 C0 10.72 0 5.44 0 0 Z " fill="#CCBEB7" transform="translate(83,250)"/>
<path d="M0 0 C5.28 0 10.56 0 16 0 C16 11.88 16 23.76 16 36 C10.72 36 5.44 36 0 36 C0 24.12 0 12.24 0 0 Z " fill="#CDBEB8" transform="translate(248,85)"/>
<path d="M0 0 C0.33 0 0.66 0 1 0 C1 1.98 1 3.96 1 6 C0.01 6.33 -0.98 6.66 -2 7 C-2.66 6.67 -3.32 6.34 -4 6 C-2.84826645 3.53199953 -1.95216435 1.95216435 0 0 Z " fill="#2AA2F7" transform="translate(456,81)"/>
<path d="M0 0 C0.33 0 0.66 0 1 0 C0.67 2.97 0.34 5.94 0 9 C-1.32 8.34 -2.64 7.68 -4 7 C-2.79618552 4.50638429 -1.54571278 2.31856917 0 0 Z " fill="#25A1F7" transform="translate(105,80)"/>
<path d="M0 0 C0.33 0 0.66 0 1 0 C0.67 2.31 0.34 4.62 0 7 C-1.32 6.67 -2.64 6.34 -4 6 C-2.84826645 3.53199953 -1.95216435 1.95216435 0 0 Z " fill="#32A6F6" transform="translate(100,446)"/>
<path d="M0 0 C0.33 0 0.66 0 1 0 C1 2.31 1 4.62 1 7 C-1.475 6.01 -1.475 6.01 -4 5 C-2.69254251 3.31295807 -1.35827971 1.64639965 0 0 Z " fill="#2BA6F9" transform="translate(460,447)"/>
</svg>
